{"glyphs":{"0":{"ha":739,"x_min":55,"x_max":683,"o":"m 245 733 q 225 693 245 733 q 206 462 206 652 q 244 191 206 272 q 369 111 283 111 q 494 193 455 111 q 534 461 534 275 q 494 731 534 647 q 369 814 454 814 q 245 733 284 814 m 55 467 q 55 586 55 467 q 133 822 55 706 q 367 938 210 938 q 604 817 524 938 q 683 459 683 696 q 606 105 683 222 q 371 -13 528 -13 q 135 108 215 -13 q 55 467 55 229 z "},"1":{"ha":739,"x_min":98,"x_max":493,"o":"m 493 924 l 493 0 l 344 0 l 344 597 q 350 766 344 700 q 302 722 335 750 q 172 616 269 694 l 98 711 l 369 924 l 493 924 z "},"2":{"ha":739,"x_min":57,"x_max":683,"o":"m 683 131 l 683 0 l 57 0 l 57 112 l 295 352 q 435 506 400 459 q 486 591 470 552 q 501 675 501 631 q 464 774 501 739 q 365 810 426 810 q 255 790 305 810 q 142 720 206 770 l 62 818 q 210 910 138 882 q 367 937 283 937 q 573 870 496 937 q 651 689 651 803 q 629 571 651 627 q 560 455 607 515 q 405 293 514 395 l 244 137 l 244 131 l 683 131 z "},"3":{"ha":739,"x_min":54,"x_max":675,"o":"m 648 711 q 597 565 648 624 q 453 487 546 507 l 453 482 q 620 413 564 468 q 675 265 675 357 q 582 60 675 133 q 313 -13 488 -13 q 54 37 161 -13 l 54 169 q 305 109 177 109 q 466 149 414 109 q 519 267 519 188 q 460 380 519 345 q 275 415 401 415 l 195 415 l 195 536 l 277 536 q 498 689 498 536 q 459 780 498 749 q 345 812 421 812 q 244 797 294 812 q 129 740 195 782 l 57 843 q 352 937 185 937 q 569 877 491 937 q 648 711 648 817 z "},"4":{"ha":739,"x_min":25,"x_max":716,"o":"m 447 325 l 447 557 q 453 760 447 681 l 448 760 q 393 659 430 716 l 163 325 l 447 325 m 716 325 l 716 202 l 591 202 l 591 0 l 447 0 l 447 202 l 25 202 l 25 316 l 447 926 l 591 926 l 591 325 l 716 325 z "},"5":{"ha":739,"x_min":74,"x_max":673,"o":"m 309 453 q 159 433 249 453 l 93 473 l 128 924 l 609 924 l 609 792 l 259 792 l 238 563 q 370 577 324 577 q 592 503 510 577 q 673 301 673 429 q 581 70 673 153 q 317 -13 489 -13 q 74 37 163 -13 l 74 172 q 191 126 127 142 q 315 111 256 111 q 468 156 415 111 q 520 287 520 201 q 309 453 520 453 z "},"6":{"ha":739,"x_min":60,"x_max":687,"o":"m 258 171 q 382 110 306 110 q 499 159 458 110 q 541 295 541 209 q 501 426 541 381 q 385 470 462 470 q 262 426 315 473 q 210 321 208 378 q 258 171 210 232 m 421 588 q 616 511 546 588 q 687 295 687 434 q 605 72 687 157 q 378 -13 524 -13 q 146 95 233 -13 q 60 394 60 202 q 501 936 60 936 q 619 925 572 936 l 619 801 q 508 815 570 815 q 284 735 357 815 q 204 480 210 654 l 211 480 q 295 560 241 532 q 421 588 349 588 z "},"7":{"ha":739,"x_min":47,"x_max":685,"o":"m 47 792 l 47 923 l 685 923 l 685 819 l 322 0 l 161 0 l 527 792 l 47 792 z "},"8":{"ha":739,"x_min":55,"x_max":683,"o":"m 355 421 q 235 341 272 385 q 198 236 198 297 q 244 138 198 174 q 370 101 289 101 q 495 138 450 101 q 541 241 541 176 q 373 413 541 341 l 355 421 m 371 548 q 478 618 446 581 q 510 707 510 655 q 472 790 510 759 q 369 822 433 822 q 266 790 304 822 q 228 705 228 759 q 282 599 228 645 q 371 548 308 579 m 84 716 q 163 876 84 817 q 371 936 242 936 q 577 876 500 936 q 654 714 654 816 q 483 488 654 572 q 637 373 591 433 q 683 239 683 312 q 599 56 683 125 q 368 -13 514 -13 q 139 52 222 -13 q 55 235 55 116 q 100 375 55 314 q 241 483 144 435 q 121 589 157 533 q 84 716 84 645 z "},"9":{"ha":739,"x_min":54,"x_max":682,"o":"m 54 626 q 54 695 54 626 q 136 850 54 765 q 362 936 217 936 q 594 828 507 936 q 682 529 682 720 q 572 122 682 256 q 241 -13 462 -13 q 120 -3 158 -13 l 120 122 q 233 106 177 106 q 457 187 383 106 q 539 441 532 268 l 531 441 q 442 359 494 385 q 317 334 390 334 q 124 410 195 334 q 54 626 54 487 m 360 812 q 241 763 282 812 q 200 627 200 713 q 239 496 200 541 q 354 451 278 451 q 481 496 430 451 q 532 602 532 541 q 483 751 534 687 q 360 812 433 815 z "},"\r":{"ha":374,"x_min":0,"x_max":0,"o":""}," ":{"ha":374,"x_min":0,"x_max":0,"o":""},"!":{"ha":426,"x_min":119,"x_max":307,"o":"m 307 79 q 307 56 307 79 q 282 8 307 34 q 213 -18 258 -18 q 144 7 169 -18 q 119 79 119 32 q 144 150 119 125 q 213 174 169 174 q 283 149 258 174 q 307 79 307 124 m 302 924 l 270 281 l 159 281 l 126 924 l 302 924 z "},"\"":{"ha":635,"x_min":119,"x_max":515,"o":"m 119 924 l 265 924 l 240 591 l 145 591 l 119 924 m 369 924 l 515 924 l 489 591 l 395 591 l 369 924 z "},"#":{"ha":836,"x_min":29,"x_max":805,"o":"m 805 550 l 625 550 l 591 370 l 761 370 l 761 264 l 569 264 l 519 0 l 407 0 l 457 264 l 300 264 l 249 0 l 140 0 l 187 264 l 29 264 l 29 370 l 209 370 l 244 550 l 78 550 l 78 656 l 263 656 l 313 923 l 427 923 l 376 656 l 536 656 l 586 923 l 697 923 l 646 656 l 805 656 l 805 550 m 356 550 l 319 370 l 477 370 l 514 550 l 356 550 z "},"$":{"ha":739,"x_min":70,"x_max":672,"o":"m 672 286 q 605 135 672 194 q 411 62 537 76 l 411 -75 l 327 -75 l 327 58 q 70 106 171 60 l 70 239 q 197 195 127 211 q 327 176 266 178 l 327 413 l 275 433 q 123 527 171 472 q 75 667 75 583 q 144 808 75 752 q 327 876 213 864 l 327 982 l 411 982 l 411 878 q 654 826 539 873 l 609 711 q 411 757 508 750 l 411 527 l 459 508 q 626 411 579 463 q 672 286 672 360 m 522 277 q 497 337 522 312 q 411 383 471 361 l 411 181 q 522 277 522 199 m 327 755 q 251 724 277 747 q 224 665 224 700 q 246 606 224 629 q 327 558 268 582 l 327 755 z "},"%":{"ha":1115,"x_min":53,"x_max":1062,"o":"m 857 463 q 797 418 815 463 q 778 278 778 374 q 797 137 778 183 q 857 91 815 91 q 940 277 940 91 q 857 463 940 463 m 857 567 q 1008 492 954 567 q 1062 275 1062 417 q 1010 60 1062 133 q 859 -13 958 -13 q 707 62 760 -13 q 654 278 654 138 q 857 567 654 567 m 255 833 q 195 788 213 833 q 176 647 176 743 q 195 506 176 551 q 255 461 213 461 q 338 647 338 461 q 255 833 338 833 m 752 924 l 875 924 l 362 0 l 239 0 l 752 924 m 255 937 q 407 862 354 937 q 461 648 461 787 q 255 357 461 357 q 106 433 159 357 q 53 648 53 508 q 255 937 53 937 z "},"&":{"ha":958,"x_min":60,"x_max":956,"o":"m 60 244 q 101 389 60 327 q 247 511 143 451 q 165 630 187 582 q 143 730 143 678 q 212 881 143 825 q 394 937 281 937 q 572 884 508 937 q 635 737 635 830 q 592 606 635 665 q 451 489 549 547 l 669 278 q 755 477 720 344 l 907 477 q 766 184 863 296 l 956 0 l 765 0 l 671 91 q 371 -13 539 -13 q 144 56 227 -13 q 60 244 60 124 m 379 115 q 577 183 495 115 l 335 421 q 243 340 268 377 q 218 255 218 303 q 261 154 218 193 q 379 115 305 115 m 494 727 q 494 749 494 727 q 467 794 494 770 q 391 819 439 819 q 315 793 344 819 q 285 727 285 767 q 305 652 285 687 q 365 574 324 617 q 466 651 437 616 q 494 727 494 685 z "},"'":{"ha":385,"x_min":119,"x_max":265,"o":"m 119 924 l 265 924 l 240 591 l 145 591 l 119 924 z "},"(":{"ha":470,"x_min":67,"x_max":386,"o":"m 257 -135 q 116 116 164 -27 q 67 426 67 260 q 116 738 67 592 q 257 994 164 884 l 386 994 q 252 727 298 875 q 205 426 205 580 q 252 126 205 271 q 385 -135 299 -20 l 257 -135 z "},")":{"ha":470,"x_min":84,"x_max":404,"o":"m 355 737 q 379 664 355 737 q 404 425 404 591 q 355 115 404 258 q 213 -135 306 -28 l 86 -135 q 219 128 173 -16 q 265 427 265 272 q 219 728 265 582 q 84 994 172 875 l 213 994 q 355 737 306 883 z "},"*":{"ha":709,"x_min":47,"x_max":660,"o":"m 281 983 l 425 983 l 399 742 l 642 810 l 660 673 l 433 654 l 581 458 l 456 390 l 350 604 l 256 390 l 127 458 l 273 654 l 47 673 l 69 810 l 306 742 l 281 983 z "},"+":{"ha":739,"x_min":60,"x_max":678,"o":"m 312 143 l 312 400 l 60 400 l 60 513 l 312 513 l 312 770 l 426 770 l 426 513 l 678 513 l 678 400 l 426 400 l 426 143 l 312 143 z "},",":{"ha":345,"x_min":40,"x_max":261,"o":"m 251 150 l 261 136 q 149 -167 230 18 l 40 -167 q 105 150 84 6 l 251 150 z "},"-":{"ha":472,"x_min":74,"x_max":398,"o":"m 398 354 l 74 354 l 74 480 l 398 480 l 398 354 z "},".":{"ha":356,"x_min":84,"x_max":272,"o":"m 247 8 q 235 -5 247 8 q 178 -18 223 -18 q 108 7 133 -18 q 84 79 84 33 q 108 150 84 125 q 178 174 132 174 q 248 149 223 174 q 272 79 272 124 q 247 8 272 34 z "},"/":{"ha":505,"x_min":10,"x_max":494,"o":"m 355 924 l 494 924 l 150 0 l 10 0 l 355 924 z "},":":{"ha":356,"x_min":84,"x_max":272,"o":"m 247 8 q 235 -5 247 8 q 178 -18 223 -18 q 108 7 133 -18 q 84 79 84 33 q 108 150 84 125 q 178 174 132 174 q 248 149 223 174 q 272 79 272 124 q 247 8 272 34 m 272 619 q 272 596 272 619 q 247 547 272 573 q 177 521 223 521 q 108 547 132 521 q 84 619 84 572 q 178 714 84 714 q 248 689 224 714 q 272 619 272 664 z "},";":{"ha":360,"x_min":40,"x_max":270,"o":"m 105 150 l 251 150 l 261 136 q 149 -167 230 18 l 40 -167 q 105 150 84 6 m 270 619 q 270 596 270 619 q 246 547 270 573 q 176 521 221 521 q 107 547 131 521 q 83 619 83 572 q 176 714 83 714 q 247 689 223 714 q 270 619 270 664 z "},"<":{"ha":739,"x_min":60,"x_max":678,"o":"m 678 264 l 678 140 l 60 411 l 60 488 l 678 796 l 678 673 l 215 456 l 678 264 z "},"=":{"ha":739,"x_min":65,"x_max":673,"o":"m 673 273 l 65 273 l 65 385 l 673 385 l 673 273 m 673 525 l 65 525 l 65 638 l 673 638 l 673 525 z "},">":{"ha":739,"x_min":60,"x_max":678,"o":"m 60 140 l 60 264 l 524 456 l 60 673 l 60 796 l 678 488 l 678 411 l 60 140 z "},"?":{"ha":693,"x_min":88,"x_max":633,"o":"m 393 8 q 381 -5 393 8 q 324 -18 369 -18 q 256 7 280 -18 q 232 79 232 32 q 324 174 232 174 q 394 150 370 174 q 418 79 418 125 q 393 8 418 34 m 381 281 l 258 281 l 258 321 q 283 436 258 390 q 377 536 308 482 q 468 624 446 591 q 490 706 490 657 q 455 784 490 756 q 353 812 419 812 q 142 755 260 812 l 88 866 q 364 937 217 937 q 560 877 487 937 q 633 709 633 816 q 577 554 633 619 q 480 467 546 518 q 401 390 420 419 q 381 309 381 360 l 381 281 z "},"@":{"ha":1162,"x_min":70,"x_max":1093,"o":"m 441 387 q 557 239 441 239 q 690 425 678 239 l 698 576 q 612 586 658 586 q 486 533 532 586 q 441 387 441 479 m 541 143 q 378 209 438 143 q 319 389 319 276 q 398 601 319 520 q 609 682 477 682 q 716 673 657 682 q 819 650 775 665 l 805 356 l 805 341 q 871 239 805 239 q 950 304 921 239 q 980 468 980 368 q 882 730 982 630 q 622 829 782 831 q 389 773 489 830 q 236 613 289 717 q 184 374 183 509 q 282 92 184 191 q 563 -6 380 -6 q 855 51 703 -6 l 855 -53 q 565 -107 721 -107 q 201 18 332 -107 q 70 370 70 145 q 140 664 70 536 q 336 860 210 791 q 621 929 462 929 q 865 873 757 931 q 1033 709 973 815 q 1090 467 1093 602 q 1027 235 1091 329 q 863 143 963 140 q 777 170 813 143 q 727 242 740 197 l 720 242 q 541 143 658 143 z "},"A":{"ha":856,"x_min":0,"x_max":856,"o":"m 856 0 l 695 0 l 603 256 l 249 256 l 159 0 l 0 0 l 345 928 l 510 928 l 856 0 m 294 387 l 563 387 q 444 737 456 701 q 427 798 433 772 q 377 628 410 721 l 294 387 z "},"B":{"ha":855,"x_min":122,"x_max":784,"o":"m 426 420 l 273 420 l 273 127 l 433 127 q 577 164 529 127 q 625 276 625 201 q 576 385 625 350 q 426 420 527 420 m 273 798 l 273 542 l 418 542 q 557 573 514 542 q 600 671 600 603 q 554 769 600 739 q 404 798 507 798 l 273 798 m 122 0 l 122 924 l 396 924 q 672 868 586 924 q 757 692 757 812 q 715 558 757 611 q 595 490 673 504 l 595 484 q 738 412 692 466 q 784 265 784 358 q 697 70 784 140 q 456 0 610 0 l 122 0 z "},"C":{"ha":820,"x_min":75,"x_max":778,"o":"m 515 807 q 310 716 385 807 q 236 457 236 624 q 307 204 236 291 q 515 117 378 117 q 743 158 610 117 l 743 28 q 496 -13 635 -13 q 185 110 293 -13 q 77 462 77 233 q 128 713 75 605 q 283 880 182 822 q 516 937 383 939 q 778 878 659 937 l 723 752 q 515 807 604 807 z "},"D":{"ha":950,"x_min":122,"x_max":873,"o":"m 381 127 q 714 466 714 127 q 404 798 714 798 l 273 798 l 273 127 l 381 127 m 407 924 q 751 805 628 924 q 873 464 873 686 q 746 121 873 242 q 381 0 619 0 l 122 0 l 122 924 l 407 924 z "},"E":{"ha":723,"x_min":122,"x_max":645,"o":"m 645 128 l 645 0 l 122 0 l 122 924 l 645 924 l 645 796 l 273 796 l 273 545 l 621 545 l 621 418 l 273 418 l 273 128 l 645 128 z "},"F":{"ha":689,"x_min":122,"x_max":643,"o":"m 272 379 l 272 0 l 122 0 l 122 924 l 643 924 l 643 796 l 272 796 l 272 508 l 620 508 l 620 379 l 272 379 z "},"G":{"ha":940,"x_min":77,"x_max":840,"o":"m 500 371 l 500 501 l 840 501 l 840 37 q 682 -1 758 11 q 514 -13 605 -13 q 190 112 304 -13 q 77 461 77 236 q 205 811 77 685 q 558 937 333 937 q 832 881 701 937 l 779 756 q 554 807 666 807 q 320 715 407 807 q 235 457 235 621 q 312 204 235 292 q 534 115 389 115 q 692 133 607 115 l 692 371 l 500 371 z "},"H":{"ha":972,"x_min":122,"x_max":850,"o":"m 850 924 l 850 0 l 699 0 l 699 416 l 273 416 l 273 0 l 122 0 l 122 924 l 273 924 l 273 546 l 699 546 l 699 924 l 850 924 z "},"I":{"ha":395,"x_min":122,"x_max":273,"o":"m 273 0 l 122 0 l 122 924 l 273 924 l 273 0 z "},"J":{"ha":387,"x_min":-98,"x_max":269,"o":"m 269 34 q 202 -183 269 -108 q 5 -258 135 -258 q -98 -242 -58 -258 l -98 -115 q -6 -128 -47 -128 q 117 28 117 -128 l 117 924 l 269 924 l 269 34 z "},"K":{"ha":827,"x_min":122,"x_max":827,"o":"m 273 0 l 122 0 l 122 924 l 273 924 l 273 483 q 396 628 340 565 l 646 924 l 818 924 q 470 519 591 657 l 827 0 l 652 0 l 362 418 l 273 345 l 273 0 z "},"L":{"ha":701,"x_min":122,"x_max":664,"o":"m 664 0 l 122 0 l 122 924 l 273 924 l 273 129 l 664 129 l 664 0 z "},"M":{"ha":1194,"x_min":122,"x_max":1073,"o":"m 259 449 l 259 0 l 122 0 l 122 924 l 335 924 l 591 189 l 595 189 l 859 924 l 1073 924 l 1073 0 l 928 0 l 928 457 q 931 630 928 513 q 937 770 935 747 l 932 770 l 654 0 l 521 0 l 253 772 l 249 772 q 259 449 259 600 z "},"N":{"ha":1014,"x_min":122,"x_max":892,"o":"m 892 924 l 892 0 l 706 0 l 252 736 l 247 736 l 250 695 q 259 480 259 583 l 259 0 l 122 0 l 122 924 l 305 924 l 758 192 l 762 192 q 753 440 753 372 l 753 924 l 892 924 z "},"O":{"ha":1019,"x_min":77,"x_max":942,"o":"m 782 463 q 713 721 782 634 q 510 809 645 809 q 306 721 376 809 q 237 463 237 633 q 306 205 237 293 q 510 117 375 117 q 782 463 782 117 m 829 813 q 886 751 829 813 q 942 463 942 689 q 830 113 942 238 q 509 -13 717 -13 q 188 112 301 -13 q 77 465 77 236 q 189 816 77 694 q 509 938 301 938 q 829 813 716 938 z "},"P":{"ha":796,"x_min":122,"x_max":734,"o":"m 273 798 l 273 473 l 353 473 q 524 513 470 473 q 578 637 578 553 q 529 759 578 720 q 378 798 480 798 l 273 798 m 388 924 q 647 853 560 924 q 734 641 734 783 q 639 423 734 500 q 369 345 545 345 l 273 345 l 273 0 l 122 0 l 122 924 l 388 924 z "},"Q":{"ha":1019,"x_min":77,"x_max":942,"o":"m 782 463 q 713 721 782 634 q 510 809 645 809 q 306 721 376 809 q 237 463 237 633 q 306 205 237 293 q 510 117 375 117 q 782 463 782 117 m 942 463 q 878 180 942 294 q 692 18 814 65 l 913 -220 l 709 -220 l 534 -13 l 510 -13 q 188 112 301 -13 q 77 465 77 236 q 189 816 77 694 q 509 938 301 938 q 829 813 716 938 q 942 463 942 689 z "},"R":{"ha":827,"x_min":122,"x_max":815,"o":"m 273 369 l 273 0 l 122 0 l 122 924 l 383 924 q 647 857 561 924 q 734 654 734 791 q 554 409 734 482 l 815 0 l 643 0 l 422 369 l 273 369 m 273 796 l 273 494 l 378 494 q 530 533 482 494 q 578 649 578 571 q 528 762 578 727 q 373 796 477 796 l 273 796 z "},"S":{"ha":711,"x_min":63,"x_max":654,"o":"m 562 442 q 654 250 654 373 q 566 58 654 128 q 320 -13 477 -13 q 63 36 163 -13 l 63 179 q 330 115 198 115 q 461 149 418 115 q 505 237 505 182 q 466 328 505 293 q 302 415 428 364 q 125 532 176 466 q 74 689 74 598 q 156 871 74 805 q 374 937 239 937 q 641 879 508 937 l 593 756 q 373 807 468 807 q 263 776 301 807 q 224 692 224 745 q 239 629 224 655 q 290 581 256 602 q 420 519 324 559 q 562 442 515 479 z "},"T":{"ha":732,"x_min":18,"x_max":713,"o":"m 441 794 l 441 0 l 290 0 l 290 794 l 18 794 l 18 924 l 713 924 l 713 794 l 441 794 z "},"U":{"ha":961,"x_min":114,"x_max":848,"o":"m 695 924 l 846 924 l 846 326 q 748 78 848 171 q 477 -13 648 -15 q 209 78 305 -13 q 114 329 114 169 l 114 924 l 265 924 l 265 339 q 318 171 265 225 q 482 117 371 117 q 695 341 695 117 l 695 924 z "},"V":{"ha":805,"x_min":0,"x_max":805,"o":"m 456 352 l 648 924 l 805 924 l 482 0 l 322 0 l 0 924 l 155 924 l 348 350 q 379 248 362 310 q 402 147 396 186 q 429 261 411 196 q 456 352 447 325 z "},"W":{"ha":1224,"x_min":8,"x_max":1215,"o":"m 1215 924 l 975 0 l 810 0 l 654 551 q 628 655 645 583 q 609 749 612 728 q 591 651 604 714 q 565 548 577 587 l 413 0 l 249 0 l 129 463 l 8 924 l 161 924 l 294 385 q 338 157 325 256 q 384 384 355 279 l 534 924 l 685 924 l 838 382 q 885 157 862 301 q 931 387 895 251 l 1062 924 l 1215 924 z "},"X":{"ha":805,"x_min":3,"x_max":803,"o":"m 492 477 l 803 0 l 628 0 l 397 378 l 164 0 l 3 0 l 309 479 l 22 924 l 190 924 l 404 574 l 617 924 l 780 924 l 492 477 z "},"Y":{"ha":766,"x_min":0,"x_max":766,"o":"m 458 0 l 306 0 l 306 353 l 0 924 l 164 924 l 383 502 l 602 924 l 766 924 l 458 358 l 458 0 z "},"Z":{"ha":744,"x_min":41,"x_max":703,"o":"m 703 129 l 703 0 l 41 0 l 41 105 l 508 794 l 54 794 l 54 924 l 690 924 l 690 818 l 223 129 l 703 129 z "},"[":{"ha":427,"x_min":98,"x_max":395,"o":"m 395 -22 l 395 -135 l 98 -135 l 98 994 l 395 994 l 395 883 l 233 883 l 233 -22 l 395 -22 z "},"\\":{"ha":505,"x_min":10,"x_max":494,"o":"m 10 924 l 150 924 l 494 0 l 355 0 l 10 924 z "},"]":{"ha":427,"x_min":32,"x_max":329,"o":"m 32 -135 l 32 -22 l 194 -22 l 194 883 l 32 883 l 32 994 l 329 994 l 329 -135 l 32 -135 z "},"^":{"ha":695,"x_min":18,"x_max":677,"o":"m 140 338 l 18 338 l 294 929 l 370 929 l 677 338 l 554 338 l 334 777 l 140 338 z "},"_":{"ha":555,"x_min":-3,"x_max":558,"o":"m 558 -117 l 558 -202 l -3 -202 l -3 -117 l 558 -117 z "},"`":{"ha":759,"x_min":213,"x_max":540,"o":"m 540 877 l 468 871 q 433 886 464 873 q 387 910 402 899 q 257 1017 314 965 q 213 1073 237 1037 l 332 1079 q 379 1052 336 1074 q 438 1014 422 1031 q 470 971 443 1006 q 514 912 496 937 q 540 877 531 888 z "},"a":{"ha":751,"x_min":57,"x_max":650,"o":"m 650 0 l 543 0 l 514 98 l 508 98 q 407 11 458 34 q 275 -13 356 -13 q 114 43 172 -13 q 57 204 57 99 q 382 423 57 414 l 502 427 l 502 464 q 471 565 502 532 q 374 598 440 598 q 176 545 291 598 l 128 651 q 380 711 245 711 q 582 653 515 711 q 650 470 650 594 l 650 0 m 211 199 q 239 126 211 152 q 322 101 268 101 q 452 146 403 101 q 501 273 501 191 l 501 334 l 411 330 q 259 295 306 326 q 211 199 211 263 z "},"b":{"ha":806,"x_min":106,"x_max":740,"o":"m 588 352 q 425 591 588 591 q 296 538 335 591 q 255 361 256 484 l 255 350 q 296 166 255 223 q 427 109 336 109 q 547 171 506 109 q 588 352 588 233 m 255 607 q 460 711 325 711 q 667 616 594 711 q 740 350 740 521 q 666 83 740 178 q 460 -13 592 -13 q 255 83 327 -13 l 244 83 l 218 0 l 106 0 l 106 983 l 255 983 l 255 749 q 249 607 255 724 l 255 607 z "},"c":{"ha":641,"x_min":65,"x_max":599,"o":"m 388 -13 q 147 80 230 -13 q 65 347 65 172 q 151 617 65 522 q 400 711 237 711 q 599 671 511 711 l 554 551 q 399 588 461 588 q 218 347 218 588 q 263 170 218 230 q 395 111 308 111 q 583 161 494 111 l 583 31 q 388 -13 508 -13 z "},"d":{"ha":806,"x_min":65,"x_max":700,"o":"m 551 91 q 345 -13 480 -13 q 138 82 211 -13 q 65 349 65 178 q 138 616 65 520 q 348 711 213 711 q 554 609 482 711 l 562 609 q 551 729 551 685 l 551 983 l 700 983 l 700 0 l 584 0 l 558 91 l 551 91 m 381 591 q 260 527 302 591 q 218 346 218 463 q 259 168 218 229 q 387 107 301 107 q 515 159 473 107 q 558 326 557 211 l 558 347 q 515 534 558 478 q 381 591 471 591 z "},"e":{"ha":746,"x_min":65,"x_max":683,"o":"m 496 554 q 476 576 496 554 q 384 599 456 599 q 270 554 312 599 q 220 423 228 509 l 537 423 q 496 554 536 509 m 411 -13 q 157 83 249 -13 q 65 347 65 178 q 150 613 65 515 q 379 711 235 711 q 602 627 522 711 q 683 396 683 544 l 683 316 l 218 316 q 272 159 220 214 q 418 105 324 105 q 648 155 533 105 l 648 34 q 411 -13 547 -13 z "},"f":{"ha":470,"x_min":22,"x_max":527,"o":"m 457 699 l 457 586 l 286 586 l 286 0 l 137 0 l 137 586 l 22 586 l 22 656 l 137 701 l 137 747 q 195 930 137 871 q 373 990 253 990 q 527 964 452 990 l 488 852 q 383 869 433 869 q 310 838 333 869 q 286 744 286 807 l 286 699 l 457 699 z "},"g":{"ha":720,"x_min":15,"x_max":697,"o":"m 286 3 q 185 -27 223 3 q 147 -107 147 -58 q 191 -183 147 -157 q 312 -209 234 -209 q 492 -174 430 -209 q 553 -81 553 -140 q 520 -17 553 -37 q 399 3 487 3 l 286 3 m 697 699 l 697 617 l 577 595 q 615 473 615 543 q 540 303 615 365 q 335 241 466 241 q 275 246 299 241 q 226 176 226 216 q 250 140 226 152 q 331 128 273 128 l 453 128 q 628 79 568 128 q 689 -63 689 30 q 591 -246 689 -182 q 308 -311 492 -311 q 90 -261 166 -311 q 15 -117 15 -210 q 55 -8 15 -52 q 169 53 95 36 q 120 94 140 66 q 101 157 101 122 q 122 218 101 191 q 189 273 143 245 q 100 350 133 297 q 67 473 67 403 q 139 649 67 586 q 343 711 211 711 q 406 707 372 711 q 454 699 439 704 l 697 699 m 342 616 q 244 579 277 616 q 211 475 211 543 q 245 372 211 407 q 342 336 279 336 q 470 476 470 336 q 342 616 470 616 z "},"h":{"ha":822,"x_min":106,"x_max":721,"o":"m 721 456 l 721 0 l 572 0 l 572 430 q 539 551 572 511 q 436 591 506 591 q 299 534 343 591 q 255 347 255 478 l 255 0 l 106 0 l 106 983 l 255 983 l 255 734 q 247 605 255 677 l 256 605 q 467 711 322 711 q 721 456 721 711 z "},"i":{"ha":361,"x_min":98,"x_max":264,"o":"m 255 699 l 255 0 l 106 0 l 106 699 l 255 699 m 264 885 q 264 866 264 885 q 242 824 264 846 q 181 803 220 803 q 119 824 141 803 q 98 885 98 846 q 119 945 98 924 q 181 967 141 967 q 242 945 220 967 q 264 885 264 924 z "},"j":{"ha":361,"x_min":-77,"x_max":264,"o":"m 255 -92 q 198 -255 255 -199 q 34 -311 142 -311 q -77 -295 -32 -311 l -77 -178 q 11 -189 -34 -189 q 106 -81 106 -189 l 106 699 l 255 699 l 255 -92 m 264 885 q 264 866 264 885 q 242 824 264 846 q 181 803 220 803 q 119 824 141 803 q 98 885 98 846 q 119 945 98 924 q 181 967 141 967 q 242 945 220 967 q 264 885 264 924 z "},"k":{"ha":740,"x_min":106,"x_max":734,"o":"m 253 0 l 106 0 l 106 983 l 253 983 l 253 503 l 246 369 l 249 369 l 334 474 l 545 699 l 716 699 l 435 399 l 734 0 l 559 0 l 335 306 l 253 239 l 253 0 z "},"l":{"ha":361,"x_min":106,"x_max":255,"o":"m 255 983 l 255 0 l 106 0 l 106 983 l 255 983 z "},"m":{"ha":1237,"x_min":106,"x_max":1136,"o":"m 695 370 l 695 0 l 546 0 l 546 431 q 516 551 546 512 q 421 591 485 591 q 295 534 334 591 q 255 348 255 477 l 255 0 l 106 0 l 106 699 l 223 699 l 243 607 l 251 607 q 335 684 280 657 q 457 711 390 711 q 671 602 618 711 l 680 602 q 768 683 711 654 q 897 711 824 711 q 1078 648 1020 711 q 1136 456 1136 586 l 1136 0 l 988 0 l 988 431 q 862 591 988 591 q 736 537 776 591 q 695 370 695 483 z "},"n":{"ha":822,"x_min":106,"x_max":721,"o":"m 721 456 l 721 0 l 572 0 l 572 430 q 539 551 572 511 q 436 591 506 591 q 298 534 342 591 q 255 348 255 478 l 255 0 l 106 0 l 106 699 l 223 699 l 243 607 l 251 607 q 340 684 282 657 q 470 711 398 711 q 721 456 721 711 z "},"o":{"ha":791,"x_min":62,"x_max":726,"o":"m 395 591 q 218 350 218 591 q 396 109 218 109 q 573 350 573 109 q 395 591 573 591 m 65 350 q 152 617 65 522 q 394 711 239 711 q 638 613 549 711 q 726 348 726 515 q 638 84 726 180 q 394 -13 550 -13 q 154 86 246 -15 q 65 350 62 187 z "},"p":{"ha":806,"x_min":106,"x_max":740,"o":"m 255 605 q 459 711 324 711 q 667 616 594 711 q 740 350 740 521 q 665 83 740 179 q 459 -13 591 -13 q 255 83 327 -13 l 246 83 q 255 -25 255 -2 l 255 -311 l 106 -311 l 106 699 l 226 699 q 247 605 232 677 l 255 605 m 427 109 q 546 172 504 109 q 588 352 588 235 q 546 530 588 470 q 421 591 505 591 q 296 539 336 591 q 255 373 255 487 l 255 350 q 296 166 255 223 q 427 109 336 109 z "},"q":{"ha":806,"x_min":65,"x_max":700,"o":"m 218 345 q 383 106 218 106 q 517 159 475 106 q 558 324 558 212 l 558 347 q 516 534 558 477 q 381 591 474 591 q 259 527 301 591 q 218 345 218 464 m 341 -13 q 138 82 211 -13 q 65 349 65 178 q 139 615 65 520 q 347 711 214 711 q 555 607 479 711 l 560 607 l 577 699 l 700 699 l 700 -311 l 551 -311 l 551 -15 q 558 91 551 24 l 550 91 q 341 -13 484 -13 z "},"r":{"ha":558,"x_min":106,"x_max":534,"o":"m 461 711 q 534 705 506 711 l 520 567 q 454 574 487 574 q 310 516 366 574 q 255 365 255 458 l 255 0 l 106 0 l 106 699 l 223 699 l 242 576 l 249 576 q 341 675 285 639 q 461 711 397 711 z "},"s":{"ha":630,"x_min":62,"x_max":576,"o":"m 499 350 q 576 197 576 296 q 501 42 576 97 q 288 -13 426 -13 q 63 29 149 -13 l 63 158 q 293 101 187 101 q 430 184 430 101 q 397 245 429 222 q 268 308 366 268 q 105 401 147 355 q 62 522 62 448 q 134 662 62 612 q 330 711 207 711 q 565 661 453 711 l 516 550 q 326 597 404 597 q 209 529 209 597 q 239 474 209 496 q 365 414 270 451 q 499 350 461 377 z "},"t":{"ha":508,"x_min":25,"x_max":475,"o":"m 269 212 q 295 134 269 160 q 371 107 322 107 q 475 124 421 107 l 475 13 q 331 -13 416 -13 q 120 210 120 -13 l 120 586 l 25 586 l 25 652 l 127 706 l 178 855 l 269 855 l 269 699 l 468 699 l 468 586 l 269 586 l 269 212 z "},"u":{"ha":822,"x_min":100,"x_max":716,"o":"m 716 0 l 599 0 l 578 91 l 571 91 q 482 15 539 42 q 352 -13 425 -13 q 162 51 225 -13 q 100 242 100 114 l 100 699 l 249 699 l 249 268 q 283 147 249 187 q 385 107 316 107 q 522 163 480 107 q 567 350 567 219 l 567 699 l 716 699 l 716 0 z "},"v":{"ha":692,"x_min":0,"x_max":692,"o":"m 426 0 l 265 0 l 0 699 l 157 699 l 299 293 q 343 127 336 191 l 348 127 q 393 293 354 173 l 534 699 l 692 699 l 426 0 z "},"w":{"ha":1057,"x_min":13,"x_max":1043,"o":"m 846 0 l 679 0 l 589 326 q 529 567 574 372 l 524 567 q 466 325 485 388 l 373 0 l 209 0 l 13 699 l 164 699 l 253 355 q 296 136 283 230 l 300 136 q 319 240 306 181 q 342 331 332 299 l 448 699 l 611 699 l 714 331 q 738 237 724 299 q 755 137 751 175 l 760 137 q 804 355 769 214 l 894 699 l 1043 699 l 846 0 z "},"x":{"ha":713,"x_min":15,"x_max":697,"o":"m 15 0 l 262 357 l 27 699 l 197 699 l 356 454 l 516 699 l 685 699 l 449 357 l 697 0 l 528 0 l 356 262 l 184 0 l 15 0 z "},"y":{"ha":694,"x_min":0,"x_max":694,"o":"m 123 -311 q 27 -301 74 -311 l 27 -183 q 104 -190 62 -190 q 255 -66 212 -190 l 281 0 l 0 699 l 161 699 l 304 303 q 347 143 336 218 l 352 143 q 376 237 357 178 q 534 699 395 296 l 694 699 l 395 -93 q 123 -311 313 -311 z "},"z":{"ha":619,"x_min":43,"x_max":573,"o":"m 573 114 l 573 0 l 43 0 l 43 91 l 396 585 l 65 585 l 65 699 l 563 699 l 563 595 l 218 114 l 573 114 z "},"{":{"ha":555,"x_min":56,"x_max":499,"o":"m 225 72 l 225 251 q 56 369 225 369 l 56 490 q 183 519 142 490 q 225 606 225 547 l 225 803 q 293 947 225 900 q 499 994 361 994 l 499 879 q 394 850 427 876 q 362 772 362 824 l 362 584 q 217 433 362 459 l 217 426 q 362 276 362 403 l 362 87 q 394 8 362 34 q 499 -19 427 -18 l 499 -135 q 289 -85 353 -134 q 225 72 225 -37 z "},"|":{"ha":713,"x_min":299,"x_max":413,"o":"m 299 -304 l 299 981 l 413 981 l 413 -304 l 299 -304 z "},"}":{"ha":536,"x_min":56,"x_max":480,"o":"m 321 251 l 321 58 q 258 -87 321 -41 q 56 -135 195 -133 l 56 -19 q 151 6 119 -18 q 183 87 183 31 l 183 253 q 217 371 183 330 q 328 426 251 413 l 328 433 q 183 584 183 459 l 183 772 q 154 850 183 824 q 56 879 125 876 l 56 994 q 259 946 197 994 q 321 787 321 897 l 321 606 q 360 517 321 544 q 480 490 399 490 l 480 369 q 361 342 400 369 q 321 251 321 314 z "},"~":{"ha":739,"x_min":60,"x_max":678,"o":"m 209 437 q 60 361 137 437 l 60 482 q 218 550 122 550 q 298 542 261 550 q 403 505 334 534 q 529 475 473 475 q 678 551 600 475 l 678 431 q 520 361 612 361 q 347 402 449 361 q 209 437 266 437 z "}," ":{"ha":374,"x_min":0,"x_max":0,"o":""},"©":{"ha":1077,"x_min":63,"x_max":1014,"o":"m 692 619 q 560 654 626 654 q 457 603 495 654 q 418 460 418 553 q 454 318 418 367 q 565 269 489 269 q 640 278 600 269 q 708 301 680 288 l 708 202 q 559 169 636 169 q 366 245 435 169 q 298 459 298 322 q 367 675 298 597 q 560 753 437 753 q 734 709 647 753 l 692 619 m 195 663 q 168 617 195 663 q 141 462 141 570 q 195 263 141 354 q 340 117 249 171 q 539 65 433 65 q 738 119 646 65 q 883 264 831 173 q 936 462 936 355 q 882 661 936 569 q 737 806 829 753 q 539 859 645 859 q 341 807 433 859 q 195 663 249 756 m 952 228 q 781 53 892 119 q 539 -13 670 -13 q 297 52 407 -13 q 125 227 187 117 q 63 463 63 337 q 126 699 63 588 q 300 873 190 810 q 537 937 410 937 q 775 874 664 937 q 950 700 885 811 q 1014 463 1014 590 q 952 228 1014 337 z "},"×":{"ha":739,"x_min":83,"x_max":656,"o":"m 84 249 l 289 457 l 83 663 l 161 743 l 369 537 l 577 743 l 656 666 l 448 457 l 654 249 l 576 171 l 368 376 l 163 171 l 84 249 z "},"÷":{"ha":739,"x_min":60,"x_max":678,"o":"m 448 236 q 448 216 448 236 q 427 172 448 196 q 368 149 405 149 q 310 171 331 149 q 289 235 289 194 q 309 299 289 277 q 368 321 329 321 q 428 298 407 321 q 448 236 448 276 m 678 400 l 60 400 l 60 513 l 678 513 l 678 400 m 448 677 q 448 657 448 677 q 427 614 448 637 q 368 591 405 591 q 310 613 331 591 q 289 677 289 635 q 309 740 289 718 q 368 762 329 762 q 428 739 407 762 q 448 677 448 717 z "},"ʼ":{"ha":509,"x_min":144,"x_max":395,"o":"m 385 1052 l 395 1035 l 272 712 l 144 712 l 215 1052 l 385 1052 z "},"ऀ":{"ha":0,"x_min":-553,"x_max":20,"o":"m -215 1044 q -206 1034 -215 1044 q -197 994 -197 1024 q -215 944 -197 964 q -267 925 -233 925 q -319 944 -301 925 q -337 994 -337 963 q -319 1044 -337 1024 q -267 1064 -301 1064 q -215 1044 -233 1064 m -553 1137 q -277 1259 -444 1259 q 20 1142 -110 1259 l -18 1036 q -269 1145 -134 1145 q -509 1038 -404 1145 l -553 1137 z "},"ँ":{"ha":0,"x_min":-521,"x_max":51,"o":"m 51 1104 q -224 982 -57 982 q -521 1098 -392 982 l -484 1205 q -232 1095 -367 1095 q 8 1203 -98 1095 l 51 1104 m -286 1196 q -295 1206 -286 1196 q -304 1246 -304 1216 q -286 1296 -304 1277 q -234 1316 -268 1316 q -182 1297 -200 1316 q -164 1247 -164 1277 q -182 1196 -164 1216 q -234 1177 -200 1177 q -286 1196 -268 1177 z "},"ं":{"ha":0,"x_min":-315,"x_max":-152,"o":"m -293 1065 q -304 1077 -293 1065 q -315 1122 -315 1088 q -293 1179 -315 1156 q -233 1201 -272 1201 q -173 1179 -195 1201 q -152 1122 -152 1156 q -174 1065 -152 1088 q -233 1042 -195 1042 q -293 1065 -271 1042 z "},"ः":{"ha":371,"x_min":84,"x_max":272,"o":"m 247 8 q 235 -5 247 8 q 178 -18 223 -18 q 108 7 133 -18 q 84 79 84 33 q 108 150 84 125 q 178 174 132 174 q 248 149 223 174 q 272 79 272 124 q 247 8 272 34 m 272 619 q 272 596 272 619 q 247 547 272 573 q 177 521 223 521 q 108 547 132 521 q 84 619 84 572 q 178 714 84 714 q 248 689 224 714 q 272 619 272 664 z "},"ऄ":{"ha":1135,"x_min":60,"x_max":1156,"o":"m 831 0 l 831 355 q 706 335 775 335 q 623 341 668 335 q 624 310 624 321 q 555 143 624 211 q 371 75 486 75 q 60 186 212 75 l 94 301 q 345 198 223 198 q 453 235 414 198 q 492 328 492 271 q 397 474 492 420 q 225 447 322 449 l 214 446 l 190 560 l 196 560 q 389 602 326 562 q 453 699 453 642 q 419 770 453 744 q 324 797 385 797 q 128 736 232 797 l 89 852 q 326 911 204 911 q 514 851 449 911 q 580 692 580 790 q 505 532 580 595 q 581 455 553 496 q 671 448 623 448 q 831 489 763 448 l 831 798 l 687 798 l 687 901 l 826 901 l 826 957 q 750 1042 826 1042 q 670 1027 728 1042 q 558 1012 612 1012 q 361 1120 451 1012 l 416 1209 q 493 1147 461 1164 q 560 1130 526 1130 q 667 1149 594 1130 q 789 1168 739 1168 q 915 1116 866 1168 q 963 976 963 1064 l 963 901 l 1156 901 l 1156 798 l 977 798 l 977 0 l 831 0 z "},"अ":{"ha":1135,"x_min":60,"x_max":1156,"o":"m 831 0 l 831 355 q 706 335 775 335 q 623 341 668 335 q 624 310 624 321 q 555 143 624 211 q 371 75 486 75 q 60 186 212 75 l 94 301 q 345 198 223 198 q 453 235 414 198 q 492 328 492 271 q 397 474 492 420 q 225 447 322 449 l 214 446 l 190 560 l 196 560 q 389 602 326 562 q 453 699 453 642 q 419 770 453 744 q 324 797 385 797 q 128 736 232 797 l 89 852 q 326 911 204 911 q 514 851 449 911 q 580 692 580 790 q 505 532 580 595 q 581 455 553 496 q 671 448 623 448 q 831 489 763 448 l 831 798 l 687 798 l 687 901 l 1156 901 l 1156 798 l 977 798 l 977 0 l 831 0 z "},"आ":{"ha":1557,"x_min":60,"x_max":1578,"o":"m 831 0 l 831 355 q 706 335 775 335 q 623 341 668 335 q 624 310 624 321 q 555 143 624 211 q 371 75 486 75 q 60 186 212 75 l 94 301 q 345 198 223 198 q 453 235 414 198 q 492 328 492 271 q 397 474 492 420 q 225 447 322 449 l 214 446 l 190 560 l 196 560 q 389 602 326 562 q 453 699 453 642 q 419 770 453 744 q 324 797 385 797 q 128 736 232 797 l 89 852 q 326 911 204 911 q 514 851 449 911 q 580 692 580 790 q 505 532 580 595 q 581 455 553 496 q 671 448 623 448 q 831 489 763 448 l 831 798 l 687 798 l 687 901 l 1578 901 l 1578 798 l 1399 798 l 1399 0 l 1255 0 l 1255 798 l 977 798 l 977 0 l 831 0 z "},"इ":{"ha":739,"x_min":-21,"x_max":760,"o":"m 84 129 q 111 189 84 164 q 177 214 137 214 q 329 134 249 214 q 480 174 428 140 q 533 253 533 209 q 505 309 533 289 q 425 329 477 329 q 262 278 352 329 l 253 278 q 65 504 65 366 q 118 621 65 575 q 279 667 171 667 l 451 667 l 451 798 l -21 798 l -21 901 l 760 901 l 760 798 l 597 798 l 597 562 l 295 562 q 222 541 247 562 q 197 485 197 519 q 251 403 197 436 q 441 442 342 442 q 603 389 541 442 q 665 255 665 336 q 601 112 665 173 q 421 30 536 50 l 553 -112 l 461 -176 l 282 20 q 132 55 180 24 q 84 129 84 87 z "},"ई":{"ha":739,"x_min":-21,"x_max":760,"o":"m 84 129 q 111 189 84 164 q 177 214 137 214 q 329 134 249 214 q 480 174 428 140 q 533 253 533 209 q 505 309 533 289 q 425 329 477 329 q 262 278 352 329 l 253 278 q 65 504 65 366 q 118 621 65 575 q 279 667 171 667 l 451 667 l 451 798 l -21 798 l -21 901 l 426 901 q 369 1075 369 989 q 430 1214 369 1161 q 599 1267 490 1267 q 712 1253 662 1267 l 704 1160 q 624 1168 664 1168 q 536 1136 568 1168 q 504 1054 504 1104 q 562 901 504 983 l 760 901 l 760 798 l 597 798 l 597 562 l 295 562 q 222 541 247 562 q 197 485 197 519 q 251 403 197 436 q 441 442 342 442 q 603 389 541 442 q 665 255 665 336 q 601 112 665 173 q 421 30 536 50 l 553 -112 l 461 -176 l 282 20 q 132 55 180 24 q 84 129 84 87 z "},"उ":{"ha":760,"x_min":-21,"x_max":782,"o":"m 391 13 q 208 41 294 13 q 37 129 123 70 l 76 247 q 372 138 220 138 q 492 178 447 138 q 536 281 536 218 q 501 376 536 331 q 403 447 466 421 q 233 425 330 427 l 204 424 l 179 543 l 206 544 q 479 688 479 555 q 405 798 479 759 l -21 798 l -21 901 l 782 901 l 782 798 l 578 798 q 612 673 612 747 q 529 508 612 574 q 637 398 600 461 q 674 264 674 336 q 597 84 674 156 q 391 13 520 13 z "},"ऊ":{"ha":1100,"x_min":-21,"x_max":1121,"o":"m 674 264 q 597 84 674 156 q 391 13 520 13 q 208 41 294 13 q 37 129 123 70 l 76 247 q 372 138 220 138 q 492 178 447 138 q 536 281 536 218 q 501 376 536 331 q 403 447 466 421 q 233 425 330 427 l 204 424 l 179 543 l 206 544 q 479 688 479 555 q 405 798 479 759 l -21 798 l -21 901 l 1121 901 l 1121 798 l 578 798 q 612 673 612 747 q 529 508 612 574 q 577 470 558 487 q 770 527 680 527 q 960 461 890 527 q 1030 286 1030 395 q 940 35 1030 156 l 815 85 q 903 301 903 206 q 873 380 903 350 q 790 409 843 409 q 656 360 723 409 q 674 264 674 313 z "},"ऋ":{"ha":1140,"x_min":-21,"x_max":1161,"o":"m 659 0 l 510 0 l 510 263 l 182 95 l 117 211 l 490 396 l 433 435 q 225 513 316 513 q 81 472 166 513 l 44 600 q 209 641 131 641 q 458 555 328 641 l 510 520 l 510 798 l -21 798 l -21 901 l 1161 901 l 1161 798 l 659 798 l 659 472 q 737 465 690 465 q 834 487 784 465 q 813 549 813 522 q 835 594 813 577 q 899 610 857 611 q 1007 588 964 610 q 1050 526 1050 565 q 1003 441 1050 486 q 1080 237 1080 323 q 1027 97 1080 151 q 871 25 975 42 l 805 121 q 919 173 885 140 q 953 256 953 205 q 905 379 953 307 q 731 343 823 343 q 659 349 697 343 l 659 0 z "},"ऌ":{"ha":1105,"x_min":-21,"x_max":1126,"o":"m 888 -100 q 734 -51 795 -100 q 674 68 674 -3 q 725 185 674 138 q 857 237 775 232 q 901 370 901 309 q 871 464 901 431 q 787 497 841 497 q 661 427 717 497 q 581 221 606 357 l 451 263 q 510 446 469 368 q 357 505 437 505 q 250 461 291 505 q 208 353 208 418 q 247 223 208 288 q 383 70 286 159 l 279 6 q 122 195 174 102 q 70 390 70 288 q 140 562 70 492 q 324 632 209 632 q 578 542 463 632 q 747 623 650 614 l 747 798 l -21 798 l -21 901 l 1126 901 l 1126 798 l 895 798 l 895 600 q 998 507 962 569 q 1034 367 1034 445 q 959 153 1034 259 l 932 153 q 830 128 864 153 q 797 68 797 103 q 823 14 797 34 q 900 -6 848 -6 q 1018 21 952 -6 l 1036 -72 q 888 -100 965 -100 z "},"ऍ":{"ha":850,"x_min":-21,"x_max":871,"o":"m 540 -86 q 567 2 567 -38 q 506 84 567 43 l 253 252 q 149 361 178 303 q 120 517 120 419 l 120 798 l -21 798 l -21 901 l 871 901 l 871 798 l 709 798 l 709 548 q 692 428 709 478 q 633 327 675 377 l 517 386 q 553 471 543 430 q 564 576 564 513 l 564 798 l 265 798 l 265 506 q 285 403 265 438 q 363 329 305 368 l 617 159 q 716 7 716 92 q 678 -123 716 -52 l 540 -86 m 702 1119 q 427 996 594 996 q 130 1113 259 996 l 167 1220 q 418 1110 284 1110 q 659 1218 553 1110 l 702 1119 z "},"ऎ":{"ha":850,"x_min":-21,"x_max":871,"o":"m 540 -86 q 567 2 567 -38 q 506 84 567 43 l 253 252 q 149 361 178 303 q 120 517 120 419 l 120 798 l -21 798 l -21 901 l 564 901 l 564 957 q 487 1042 564 1042 q 408 1027 466 1042 q 296 1012 350 1012 q 98 1120 188 1012 l 153 1209 q 231 1147 198 1164 q 297 1130 263 1130 q 404 1149 331 1130 q 526 1168 477 1168 q 652 1116 604 1168 q 700 976 700 1064 l 700 901 l 871 901 l 871 798 l 709 798 l 709 548 q 692 428 709 478 q 633 327 675 377 l 517 386 q 553 471 543 430 q 564 576 564 513 l 564 798 l 265 798 l 265 506 q 285 403 265 438 q 363 329 305 368 l 617 159 q 716 7 716 92 q 678 -123 716 -52 l 540 -86 z "},"ए":{"ha":850,"x_min":-21,"x_max":871,"o":"m 540 -86 q 567 2 567 -38 q 506 84 567 43 l 253 252 q 149 361 178 303 q 120 517 120 419 l 120 798 l -21 798 l -21 901 l 871 901 l 871 798 l 709 798 l 709 548 q 692 428 709 478 q 633 327 675 377 l 517 386 q 553 471 543 430 q 564 576 564 513 l 564 798 l 265 798 l 265 506 q 285 403 265 438 q 363 329 305 368 l 617 159 q 716 7 716 92 q 678 -123 716 -52 l 540 -86 z "},"ऐ":{"ha":850,"x_min":-21,"x_max":871,"o":"m 540 -86 q 567 2 567 -38 q 506 84 567 43 l 253 252 q 149 361 178 303 q 120 517 120 419 l 120 798 l -21 798 l -21 901 l 518 901 l 220 1189 l 326 1272 l 692 901 l 871 901 l 871 798 l 709 798 l 709 548 q 692 428 709 478 q 633 327 675 377 l 517 386 q 553 471 543 430 q 564 576 564 513 l 564 798 l 265 798 l 265 506 q 285 403 265 438 q 363 329 305 368 l 617 159 q 716 7 716 92 q 678 -123 716 -52 l 540 -86 z "},"ऑ":{"ha":1557,"x_min":60,"x_max":1597,"o":"m 831 0 l 831 355 q 706 335 775 335 q 623 341 668 335 q 624 310 624 321 q 555 143 624 211 q 371 75 486 75 q 60 186 212 75 l 94 301 q 345 198 223 198 q 453 235 414 198 q 492 328 492 271 q 397 474 492 420 q 225 447 322 449 l 214 446 l 190 560 l 196 560 q 389 602 326 562 q 453 699 453 642 q 419 770 453 744 q 324 797 385 797 q 128 736 232 797 l 89 852 q 326 911 204 911 q 514 851 449 911 q 580 692 580 790 q 505 532 580 595 q 581 455 553 496 q 671 448 623 448 q 831 489 763 448 l 831 798 l 687 798 l 687 901 l 1578 901 l 1578 798 l 1399 798 l 1399 0 l 1255 0 l 1255 798 l 977 798 l 977 0 l 831 0 m 1597 1105 q 1321 982 1489 982 q 1024 1099 1154 982 l 1062 1206 q 1313 1096 1178 1096 q 1553 1204 1448 1096 l 1597 1105 z "},"ऒ":{"ha":1557,"x_min":60,"x_max":1578,"o":"m 831 0 l 831 355 q 706 335 775 335 q 623 341 668 335 q 624 310 624 321 q 555 143 624 211 q 371 75 486 75 q 60 186 212 75 l 94 301 q 345 198 223 198 q 453 235 414 198 q 492 328 492 271 q 397 474 492 420 q 225 447 322 449 l 214 446 l 190 560 l 196 560 q 389 602 326 562 q 453 699 453 642 q 419 770 453 744 q 324 797 385 797 q 128 736 232 797 l 89 852 q 326 911 204 911 q 514 851 449 911 q 580 692 580 790 q 505 532 580 595 q 581 455 553 496 q 671 448 623 448 q 831 489 763 448 l 831 798 l 687 798 l 687 901 l 1249 901 l 1249 957 q 1173 1042 1249 1042 q 1093 1027 1151 1042 q 981 1012 1035 1012 q 784 1120 873 1012 l 838 1209 q 916 1147 883 1164 q 983 1130 949 1130 q 1089 1149 1017 1130 q 1211 1168 1162 1168 q 1337 1116 1289 1168 q 1385 976 1385 1064 l 1385 901 l 1578 901 l 1578 798 l 1399 798 l 1399 0 l 1255 0 l 1255 798 l 977 798 l 977 0 l 831 0 z "},"ओ":{"ha":1557,"x_min":60,"x_max":1578,"o":"m 831 0 l 831 355 q 706 335 775 335 q 623 341 668 335 q 624 310 624 321 q 555 143 624 211 q 371 75 486 75 q 60 186 212 75 l 94 301 q 345 198 223 198 q 453 235 414 198 q 492 328 492 271 q 397 474 492 420 q 225 447 322 449 l 214 446 l 190 560 l 196 560 q 389 602 326 562 q 453 699 453 642 q 419 770 453 744 q 324 797 385 797 q 128 736 232 797 l 89 852 q 326 911 204 911 q 514 851 449 911 q 580 692 580 790 q 505 532 580 595 q 581 455 553 496 q 671 448 623 448 q 831 489 763 448 l 831 798 l 687 798 l 687 901 l 1204 901 l 905 1189 l 1011 1272 l 1377 901 l 1578 901 l 1578 798 l 1399 798 l 1399 0 l 1255 0 l 1255 798 l 977 798 l 977 0 l 831 0 z "},"औ":{"ha":1557,"x_min":60,"x_max":1578,"o":"m 831 0 l 831 355 q 706 335 775 335 q 623 341 668 335 q 624 310 624 321 q 555 143 624 211 q 371 75 486 75 q 60 186 212 75 l 94 301 q 345 198 223 198 q 453 235 414 198 q 492 328 492 271 q 397 474 492 420 q 225 447 322 449 l 214 446 l 190 560 l 196 560 q 389 602 326 562 q 453 699 453 642 q 419 770 453 744 q 324 797 385 797 q 128 736 232 797 l 89 852 q 326 911 204 911 q 514 851 449 911 q 580 692 580 790 q 505 532 580 595 q 581 455 553 496 q 671 448 623 448 q 831 489 763 448 l 831 798 l 687 798 l 687 901 l 1031 901 l 720 1127 l 817 1221 l 1229 901 l 1246 901 l 1093 1263 l 1224 1303 l 1384 901 l 1578 901 l 1578 798 l 1399 798 l 1399 0 l 1255 0 l 1255 798 l 977 798 l 977 0 l 831 0 z "},"क":{"ha":1145,"x_min":-21,"x_max":1166,"o":"m 650 0 l 505 0 l 505 216 q 333 164 430 164 q 140 240 216 164 q 64 426 64 317 q 126 581 64 520 q 301 642 188 642 q 505 601 414 642 l 505 798 l -21 798 l -21 901 l 1166 901 l 1166 798 l 650 798 l 650 561 q 793 591 718 591 q 983 524 909 591 q 1057 353 1057 457 q 965 106 1057 222 l 843 151 q 926 357 926 261 q 895 439 926 408 q 807 469 863 469 q 650 399 721 469 l 650 0 m 319 278 q 505 371 426 278 l 505 489 q 343 529 422 529 q 226 495 263 529 q 190 406 190 461 q 225 315 190 351 q 319 278 261 278 z "},"ख":{"ha":1265,"x_min":-21,"x_max":1286,"o":"m 802 367 q 961 427 895 367 l 961 541 q 810 574 889 574 q 717 545 749 574 q 685 471 685 515 q 718 396 685 426 q 802 367 751 367 m 961 0 l 961 46 q 723 18 857 18 q 456 67 589 18 q 232 208 323 117 q 135 326 182 259 q 39 517 39 463 q 56 562 39 544 q 99 581 73 581 q 143 568 124 581 q 184 525 162 555 l 206 489 q 291 563 267 517 q 315 682 315 608 l 315 798 l -21 798 l -21 901 l 1286 901 l 1286 798 l 1107 798 l 1107 0 l 961 0 m 329 283 q 506 170 401 211 q 734 129 612 129 q 961 170 856 129 l 961 293 q 812 259 899 259 q 639 325 710 259 q 567 490 567 392 q 625 626 567 574 q 783 678 683 678 q 961 647 884 678 l 961 798 l 460 798 l 460 671 q 452 578 460 619 q 423 494 444 536 q 265 355 382 410 q 329 283 291 321 z "},"ग":{"ha":939,"x_min":-21,"x_max":960,"o":"m 636 0 l 636 798 l 355 798 l 355 317 q 296 250 355 250 q 203 284 255 250 q 117 363 152 318 q 81 439 81 408 q 140 489 81 489 l 209 489 l 209 798 l -21 798 l -21 901 l 960 901 l 960 798 l 781 798 l 781 0 l 636 0 z "},"घ":{"ha":989,"x_min":-21,"x_max":1010,"o":"m 338 362 q 338 336 338 362 q 375 279 338 310 q 471 248 411 248 q 587 273 531 248 q 686 344 643 298 l 686 798 l 230 798 q 216 724 216 767 q 253 642 216 680 q 364 588 290 605 q 492 607 421 607 l 518 607 l 540 491 l 528 491 q 385 452 433 491 q 338 362 338 414 m 686 0 l 686 179 q 481 122 603 122 q 282 195 359 122 q 204 372 204 268 q 250 510 204 451 q 116 603 161 543 q 71 739 71 664 q 78 798 71 770 l -21 798 l -21 901 l 1010 901 l 1010 798 l 831 798 l 831 0 l 686 0 z "},"ङ":{"ha":950,"x_min":-21,"x_max":971,"o":"m 449 10 q 81 105 268 10 l 113 219 q 431 124 278 124 q 564 156 518 124 q 609 238 609 187 q 576 302 609 278 q 483 327 543 327 q 305 276 388 327 l 294 276 q 104 506 104 365 q 156 621 104 574 q 310 667 209 667 l 520 667 l 520 798 l -21 798 l -21 901 l 971 901 l 971 798 l 665 798 l 665 562 l 334 562 q 262 541 286 562 q 238 486 238 520 q 294 402 238 435 q 483 441 380 441 q 675 383 606 441 q 744 231 744 326 q 671 73 744 136 q 449 10 597 10 m 772 429 q 761 441 772 429 q 751 488 751 452 q 772 547 751 524 q 836 571 793 571 q 901 548 880 571 q 922 488 922 525 q 900 429 922 452 q 836 406 878 406 q 772 429 793 406 z "},"च":{"ha":997,"x_min":-21,"x_max":1018,"o":"m 694 0 l 694 179 q 504 128 615 128 q 294 200 375 128 q 213 378 213 271 q 255 510 213 453 l 51 510 l 51 629 l 555 629 l 555 510 l 492 510 q 384 464 421 503 q 347 371 347 425 q 387 283 347 317 q 488 249 427 249 q 602 273 549 249 q 694 340 656 297 l 694 798 l -21 798 l -21 901 l 1018 901 l 1018 798 l 839 798 l 839 0 l 694 0 z "},"छ":{"ha":1102,"x_min":-21,"x_max":1123,"o":"m 815 577 q 794 577 815 577 q 751 548 774 577 q 727 472 727 519 q 757 383 727 426 q 854 297 786 340 q 905 441 905 372 q 881 544 905 510 q 815 577 856 577 m 517 124 q 779 216 665 124 q 598 500 598 338 q 653 637 598 579 q 798 695 708 694 l 798 798 l 304 798 q 216 665 216 753 q 338 531 216 576 q 468 552 396 551 l 475 552 l 511 434 l 504 434 q 352 389 401 432 q 303 281 303 346 q 361 170 303 215 q 517 124 418 124 m 894 144 q 862 113 894 144 q 734 42 831 81 q 538 4 638 4 q 365 28 437 4 q 249 94 293 53 q 159 298 159 179 q 227 462 159 393 q 112 558 149 501 q 74 680 74 614 q 118 798 74 745 l -21 798 l -21 901 l 1123 901 l 1123 798 l 944 798 l 944 648 q 1030 440 1030 579 q 994 284 1030 362 q 894 144 958 206 z "},"ज":{"ha":1151,"x_min":-21,"x_max":1172,"o":"m 847 0 l 847 508 l 573 508 q 670 295 670 421 q 605 136 670 200 q 430 71 540 71 q 34 358 205 71 l 108 457 q 414 201 265 201 q 505 231 472 201 q 538 315 538 261 q 481 440 538 381 q 330 523 425 499 l 330 629 l 847 629 l 847 798 l -21 798 l -21 901 l 1172 901 l 1172 798 l 992 798 l 992 0 l 847 0 z "},"झ":{"ha":1166,"x_min":-21,"x_max":1187,"o":"m 84 129 q 111 189 84 164 q 177 214 137 214 q 329 134 249 214 q 480 174 428 140 q 533 253 533 209 q 505 309 533 289 q 425 329 477 329 q 262 278 352 329 l 253 278 q 65 504 65 366 q 118 621 65 575 q 279 667 171 667 l 451 667 l 451 798 l -21 798 l -21 901 l 1187 901 l 1187 798 l 1007 798 l 1007 0 l 862 0 l 862 255 q 759 243 808 243 q 665 249 710 243 q 599 110 664 170 q 421 30 535 49 l 553 -112 l 461 -176 l 282 20 q 132 55 180 24 q 84 129 84 87 m 721 359 q 862 385 798 359 l 862 798 l 597 798 l 597 562 l 295 562 q 222 541 247 562 q 197 485 197 519 q 251 403 197 436 q 435 442 342 442 q 624 367 562 442 q 721 359 673 359 z "},"ञ":{"ha":1205,"x_min":-21,"x_max":1226,"o":"m 902 0 l 902 345 q 783 330 843 330 q 666 339 723 330 q 585 177 654 237 q 414 117 516 117 q 220 162 312 117 q 27 308 128 207 l 81 416 q 242 284 171 322 q 383 246 312 246 q 497 286 454 246 q 540 390 540 327 q 495 494 539 454 q 384 535 450 535 q 228 475 301 535 l 168 584 q 266 638 210 617 q 379 659 322 659 q 555 605 480 659 q 657 461 631 551 q 746 454 699 454 q 902 482 825 454 l 902 798 l -21 798 l -21 901 l 1226 901 l 1226 798 l 1047 798 l 1047 0 l 902 0 z "},"ट":{"ha":816,"x_min":-21,"x_max":837,"o":"m 718 85 q 596 50 654 60 q 459 39 539 39 q 306 65 379 39 q 184 133 232 90 q 109 235 136 176 q 82 359 82 293 q 164 555 82 482 q 400 629 246 629 l 510 629 l 510 798 l -21 798 l -21 901 l 837 901 l 837 798 l 654 798 l 654 517 l 445 517 q 279 468 332 517 q 225 339 225 419 q 286 211 225 260 q 454 162 346 162 q 688 211 562 162 l 718 85 z "},"ठ":{"ha":899,"x_min":-21,"x_max":920,"o":"m 215 341 q 215 301 215 341 q 279 206 215 261 q 456 152 343 152 q 634 206 570 152 q 699 344 699 260 q 612 518 699 447 l 451 518 q 273 470 331 518 q 215 341 215 422 m 469 28 q 183 124 290 28 q 76 362 76 220 q 162 556 76 482 q 397 629 249 629 l 589 629 l 589 798 l -21 798 l -21 901 l 920 901 l 920 798 l 734 798 l 734 565 q 803 456 777 517 q 830 331 829 394 q 808 214 831 268 q 741 118 785 160 q 627 52 698 77 q 469 28 557 28 z "},"ड":{"ha":833,"x_min":-21,"x_max":855,"o":"m 449 10 q 81 105 268 10 l 113 219 q 431 124 278 124 q 564 156 518 124 q 609 238 609 187 q 576 302 609 278 q 483 327 543 327 q 305 276 388 327 l 294 276 q 104 506 104 365 q 156 621 104 574 q 310 667 209 667 l 520 667 l 520 798 l -21 798 l -21 901 l 855 901 l 855 798 l 665 798 l 665 562 l 334 562 q 262 541 286 562 q 238 486 238 520 q 294 402 238 435 q 483 441 380 441 q 675 383 606 441 q 744 231 744 326 q 671 73 744 136 q 449 10 597 10 z "},"ढ":{"ha":843,"x_min":-21,"x_max":864,"o":"m 494 116 q 633 145 584 116 q 681 216 681 174 q 657 268 681 249 q 585 288 632 288 q 506 258 537 288 q 475 189 475 229 q 492 116 475 150 l 494 116 m 509 19 q 333 47 415 19 q 195 121 251 74 q 106 229 138 168 q 74 353 74 291 q 93 463 74 415 q 151 549 112 511 q 252 608 189 587 q 397 629 315 629 l 527 629 l 527 798 l -21 798 l -21 901 l 864 901 l 864 798 l 672 798 l 672 520 l 447 520 q 265 469 322 520 q 208 334 208 418 q 250 220 208 273 q 364 140 292 168 q 355 209 355 170 q 412 335 355 284 q 572 387 469 387 q 736 336 674 387 q 798 210 798 284 q 724 72 798 126 q 509 19 650 19 z "},"ण":{"ha":1135,"x_min":-21,"x_max":1156,"o":"m 243 485 q 273 389 243 422 q 360 355 303 355 q 447 394 416 355 q 479 507 479 433 l 479 798 l 243 798 l 243 485 m 831 0 l 831 798 l 624 798 l 624 521 q 560 316 624 392 q 367 239 496 239 q 169 316 239 239 q 98 519 98 393 l 98 798 l -21 798 l -21 901 l 1156 901 l 1156 798 l 977 798 l 977 0 l 831 0 z "},"त":{"ha":866,"x_min":-21,"x_max":887,"o":"m 377 629 l 563 629 l 563 798 l -21 798 l -21 901 l 887 901 l 887 798 l 708 798 l 708 0 l 563 0 l 563 506 l 410 506 q 269 462 316 506 q 222 343 222 418 q 352 29 222 215 l 230 -12 q 121 190 160 87 q 83 378 82 294 q 158 560 84 491 q 377 629 232 629 z "},"थ":{"ha":965,"x_min":39,"x_max":987,"o":"m 169 744 q 215 669 169 701 q 356 626 260 637 q 370 690 370 657 q 335 785 370 748 q 250 823 300 823 q 190 801 211 823 q 169 744 169 779 m 663 0 l 663 230 q 499 189 595 189 q 268 257 378 189 q 93 446 157 326 l 96 460 q 279 541 213 495 q 101 623 163 562 q 39 767 39 685 q 89 885 39 836 q 227 934 140 934 q 420 861 345 934 q 494 676 494 787 q 434 510 494 580 q 273 399 374 440 q 462 314 352 314 q 663 400 586 314 l 663 798 l 592 798 l 592 901 l 987 901 l 987 798 l 807 798 l 807 0 l 663 0 z "},"द":{"ha":800,"x_min":-21,"x_max":821,"o":"m 454 74 q 178 158 283 74 q 72 378 72 242 q 146 555 72 484 q 244 611 183 591 q 382 631 304 631 l 494 631 l 494 798 l -21 798 l -21 901 l 821 901 l 821 798 l 640 798 l 640 522 l 429 522 q 262 476 316 522 q 209 356 209 430 q 270 235 209 283 q 426 186 332 186 q 459 187 448 186 q 442 251 441 221 q 467 300 443 282 q 537 319 491 319 q 666 289 610 319 q 721 219 721 259 q 699 163 721 192 q 635 112 677 133 l 741 -100 l 631 -147 l 518 78 q 454 74 485 74 z "},"ध":{"ha":985,"x_min":-2,"x_max":1006,"o":"m 220 850 q 200 850 220 850 q 151 819 180 850 q 121 745 121 787 q 145 671 121 703 q 261 706 220 675 q 301 782 301 737 q 281 831 301 812 q 220 850 261 850 m 683 0 l 683 179 q 476 122 597 122 q 278 195 355 122 q 201 373 201 268 q 238 493 201 440 q 70 583 131 522 q -2 756 -2 655 q 55 899 -2 842 q 210 956 112 956 q 362 904 307 956 q 417 774 417 852 q 375 665 417 713 q 261 597 332 617 q 352 577 300 585 q 489 599 411 599 l 515 599 l 536 482 l 524 482 q 382 447 430 482 q 335 360 335 411 q 371 279 335 310 q 466 248 408 248 q 683 344 594 248 l 683 798 l 582 798 l 582 901 l 1006 901 l 1006 798 l 828 798 l 828 0 l 683 0 z "},"न":{"ha":878,"x_min":-21,"x_max":899,"o":"m 574 0 l 574 446 l 275 446 l 275 301 q 260 255 275 272 q 219 238 246 238 q 163 269 193 238 q 104 367 132 299 q 75 491 75 435 q 159 567 75 567 l 574 567 l 574 798 l -21 798 l -21 901 l 899 901 l 899 798 l 720 798 l 720 0 l 574 0 z "},"ऩ":{"ha":878,"x_min":-21,"x_max":899,"o":"m 130 -72 q 119 -61 130 -72 q 108 -15 108 -49 q 130 41 108 18 q 190 64 151 64 q 249 41 228 64 q 270 -15 270 18 q 249 -72 270 -49 q 190 -95 228 -95 q 130 -72 152 -95 m 574 0 l 574 446 l 275 446 l 275 301 q 260 255 275 272 q 219 238 246 238 q 163 269 193 238 q 104 367 132 299 q 75 491 75 435 q 159 567 75 567 l 574 567 l 574 798 l -21 798 l -21 901 l 899 901 l 899 798 l 720 798 l 720 0 l 574 0 z "},"प":{"ha":840,"x_min":-21,"x_max":862,"o":"m 374 371 q 537 427 466 371 l 537 798 l 245 798 l 245 508 q 374 371 245 371 m 537 0 l 537 276 q 394 250 466 250 q 179 324 258 250 q 100 536 100 398 l 100 798 l -21 798 l -21 901 l 862 901 l 862 798 l 683 798 l 683 0 l 537 0 z "},"फ":{"ha":1174,"x_min":-21,"x_max":1195,"o":"m 678 0 l 532 0 l 532 294 q 399 272 465 272 q 182 347 261 272 q 103 562 103 421 l 103 798 l -21 798 l -21 901 l 1195 901 l 1195 798 l 678 798 l 678 525 q 831 560 746 560 q 1023 489 950 560 q 1096 315 1096 418 q 1073 184 1096 251 q 1011 65 1050 118 l 884 109 q 963 319 963 219 q 931 403 963 371 q 845 436 899 436 q 678 357 753 436 l 678 0 m 378 393 q 532 442 459 393 l 532 798 l 248 798 l 248 529 q 282 427 248 461 q 378 393 315 393 z "},"ब":{"ha":851,"x_min":-21,"x_max":872,"o":"m 362 270 q 440 281 403 270 l 238 515 q 199 415 199 477 q 243 312 199 353 q 362 270 287 270 m 371 557 q 329 554 346 557 l 527 327 q 548 345 541 338 l 548 522 q 371 557 451 557 m 548 0 l 548 197 q 379 154 477 154 q 155 238 242 154 q 69 440 69 321 q 141 604 69 539 q 333 668 214 668 q 548 636 451 668 l 548 798 l -21 798 l -21 901 l 872 901 l 872 798 l 693 798 l 693 0 l 548 0 z "},"भ":{"ha":1019,"x_min":-11,"x_max":1040,"o":"m 716 0 l 716 347 l 440 347 l 440 277 q 389 216 440 216 q 328 233 363 216 q 262 283 294 251 q 210 350 230 314 q 190 414 190 387 q 205 455 190 440 q 249 469 220 469 l 301 469 l 301 545 q 68 614 147 551 q -11 777 -11 677 q 40 899 -11 848 q 186 951 91 951 q 371 881 302 951 q 440 697 440 810 l 440 469 l 716 469 l 716 798 l 616 798 l 616 901 l 1040 901 l 1040 798 l 861 798 l 861 0 l 716 0 m 118 760 q 301 653 118 659 l 301 714 q 272 803 301 769 q 202 837 243 837 q 139 814 160 837 q 118 760 118 791 z "},"म":{"ha":908,"x_min":-21,"x_max":929,"o":"m 605 0 l 605 347 l 310 347 l 310 277 q 258 216 310 216 q 197 233 232 216 q 131 283 162 251 q 79 351 100 314 q 58 414 58 388 q 73 455 58 440 q 119 469 88 469 l 164 469 l 164 798 l -21 798 l -21 901 l 929 901 l 929 798 l 750 798 l 750 0 l 605 0 m 605 798 l 310 798 l 310 469 l 605 469 l 605 798 z "},"य":{"ha":918,"x_min":-21,"x_max":940,"o":"m 415 316 q 615 400 538 316 l 615 798 l 401 798 l 401 681 q 358 510 401 579 q 225 402 315 441 q 415 316 305 316 m 615 0 l 615 231 q 451 189 547 189 q 220 257 330 189 q 45 447 110 326 l 48 462 q 210 554 164 501 q 256 692 256 607 l 256 798 l -21 798 l -21 901 l 940 901 l 940 798 l 760 798 l 760 0 l 615 0 z "},"र":{"ha":635,"x_min":-21,"x_max":657,"o":"m 67 461 q 31 538 31 510 q 48 584 31 566 q 94 602 66 602 q 160 563 132 602 l 234 461 q 335 535 303 487 q 366 659 366 583 l 366 798 l -21 798 l -21 901 l 657 901 l 657 798 l 511 798 l 511 635 q 463 458 511 535 q 311 342 415 381 l 525 51 l 421 -20 l 67 461 z "},"ऱ":{"ha":635,"x_min":-21,"x_max":657,"o":"m 44 -43 q 33 -31 44 -43 q 22 14 22 -20 q 43 71 22 48 q 103 93 65 93 q 163 71 142 93 q 184 14 184 48 q 163 -43 184 -20 q 103 -66 141 -66 q 44 -43 65 -66 m 67 461 q 31 538 31 510 q 48 584 31 566 q 94 602 66 602 q 160 563 132 602 l 234 461 q 335 535 303 487 q 366 659 366 583 l 366 798 l -21 798 l -21 901 l 657 901 l 657 798 l 511 798 l 511 635 q 463 458 511 535 q 311 342 415 381 l 525 51 l 421 -20 l 67 461 z "},"ल":{"ha":1103,"x_min":-29,"x_max":1124,"o":"m 800 0 l 800 451 l 500 199 l 409 289 l 543 405 q 346 502 452 502 q 238 460 279 502 q 197 352 197 418 q 236 223 197 287 q 374 70 275 158 l 263 2 q 58 378 58 182 q 132 559 58 487 q 323 631 206 631 q 639 488 500 631 l 800 628 l 800 798 l -29 798 l -29 901 l 1124 901 l 1124 798 l 946 798 l 946 0 l 800 0 z "},"ळ":{"ha":1178,"x_min":-21,"x_max":1199,"o":"m 204 346 q 204 309 204 346 q 241 232 204 272 q 337 192 278 192 q 443 239 397 192 q 532 388 490 286 q 560 449 546 423 q 371 516 466 516 q 249 468 294 516 q 204 346 204 421 m 822 194 q 944 240 899 194 q 989 362 989 286 q 953 478 989 437 q 858 519 917 519 q 748 476 799 519 q 664 347 697 433 q 629 270 645 298 q 822 194 725 194 m 840 70 q 701 96 766 70 q 568 175 635 121 q 351 70 480 70 q 146 149 222 70 q 70 354 70 228 q 147 560 70 480 q 349 640 223 640 q 622 542 499 640 q 848 644 712 644 q 875 643 866 644 l 875 798 l -21 798 l -21 901 l 1199 901 l 1199 798 l 1020 798 l 1020 589 q 1093 489 1068 550 q 1118 351 1118 428 q 1041 147 1118 223 q 840 70 965 70 z "},"ऴ":{"ha":1178,"x_min":-21,"x_max":1199,"o":"m 95 -126 q 85 -115 95 -126 q 74 -70 74 -103 q 95 -13 74 -36 q 155 10 117 10 q 215 -13 194 10 q 236 -70 236 -36 q 215 -126 236 -103 q 155 -150 193 -150 q 95 -126 117 -150 m 204 346 q 204 309 204 346 q 241 232 204 272 q 337 192 278 192 q 443 239 397 192 q 532 388 490 286 q 560 449 546 423 q 371 516 466 516 q 249 468 294 516 q 204 346 204 421 m 822 194 q 944 240 899 194 q 989 362 989 286 q 953 478 989 437 q 858 519 917 519 q 748 476 799 519 q 664 347 697 433 q 629 270 645 298 q 822 194 725 194 m 840 70 q 701 96 766 70 q 568 175 635 121 q 351 70 480 70 q 146 149 222 70 q 70 354 70 228 q 147 560 70 480 q 349 640 223 640 q 622 542 499 640 q 848 644 712 644 q 875 643 866 644 l 875 798 l -21 798 l -21 901 l 1199 901 l 1199 798 l 1020 798 l 1020 589 q 1093 489 1068 550 q 1118 351 1118 428 q 1041 147 1118 223 q 840 70 965 70 z "},"व":{"ha":850,"x_min":-21,"x_max":871,"o":"m 361 274 q 548 352 465 274 l 548 518 q 373 553 454 553 q 247 514 291 553 q 203 416 203 476 q 246 315 203 355 q 361 274 289 274 m 548 0 l 548 199 q 379 156 478 156 q 155 238 242 156 q 69 441 69 320 q 142 603 69 539 q 333 667 215 667 q 548 635 451 667 l 548 798 l -21 798 l -21 901 l 871 901 l 871 798 l 692 798 l 692 0 l 548 0 z "},"श":{"ha":1096,"x_min":83,"x_max":1117,"o":"m 271 229 q 174 216 222 216 q 104 243 126 216 q 83 317 83 269 q 119 408 83 364 q 197 452 154 452 q 254 436 228 452 q 315 380 279 421 q 469 512 419 423 q 199 586 294 517 q 104 758 104 655 q 159 883 104 831 q 310 936 213 936 q 533 849 442 936 q 623 626 623 763 q 559 424 623 516 q 393 276 494 331 l 584 66 l 494 -13 l 271 229 m 501 636 q 447 766 501 713 q 326 819 394 819 q 258 796 282 819 q 235 741 234 774 q 301 653 237 690 q 499 612 364 615 q 501 636 501 628 m 793 0 l 793 798 l 667 798 l 667 901 l 1117 901 l 1117 798 l 938 798 l 938 0 l 793 0 z "},"ष":{"ha":840,"x_min":-21,"x_max":862,"o":"m 240 508 q 276 405 240 439 q 376 371 312 371 q 494 395 441 371 l 240 704 l 240 508 m 538 798 l 288 798 l 538 494 l 538 798 m 538 0 l 538 275 q 394 249 467 249 q 179 324 258 249 q 100 536 100 398 l 100 798 l -21 798 l -21 901 l 862 901 l 862 798 l 683 798 l 683 0 l 538 0 z "},"स":{"ha":1055,"x_min":-21,"x_max":1076,"o":"m 65 461 q 31 537 31 508 q 48 584 31 567 q 94 602 66 602 q 160 563 132 602 l 225 475 q 305 546 279 501 q 331 661 331 592 l 331 798 l -21 798 l -21 901 l 1076 901 l 1076 798 l 897 798 l 897 0 l 752 0 l 752 357 q 609 341 687 341 q 358 392 484 341 q 300 357 331 371 l 525 51 l 421 -20 l 65 461 m 442 491 q 597 468 518 468 q 752 492 676 468 l 752 798 l 475 798 l 475 638 q 442 491 475 555 z "},"ह":{"ha":841,"x_min":-21,"x_max":862,"o":"m 143 157 q 192 305 143 241 q 62 496 62 383 q 115 611 62 564 q 269 657 168 657 l 539 657 l 539 798 l -21 798 l -21 901 l 862 901 l 862 798 l 684 798 l 684 551 l 310 551 q 230 529 256 551 q 204 473 204 508 q 284 381 204 416 q 451 417 355 417 q 665 353 585 417 q 746 196 746 289 q 708 56 746 117 l 586 84 q 614 189 614 131 q 575 268 614 235 q 460 300 536 300 q 334 252 383 300 q 285 143 285 204 q 304 63 285 98 q 368 -3 324 27 q 681 -91 459 -65 l 643 -198 q 268 -80 393 -173 q 143 157 143 13 z "},"ऺ":{"ha":0,"x_min":-305,"x_max":-160,"o":"m -305 1050 l -160 1050 l -160 826 l -305 826 l -305 1050 z "},"ऻ":{"ha":434,"x_min":-21,"x_max":455,"o":"m 131 0 l 131 798 l -21 798 l -21 901 l 131 901 l 131 1049 l 276 1049 l 276 901 l 455 901 l 455 798 l 276 798 l 276 0 l 131 0 z "},"़":{"ha":0,"x_min":-671,"x_max":-508,"o":"m -649 -264 q -660 -252 -649 -264 q -671 -207 -671 -241 q -649 -151 -671 -173 q -589 -128 -628 -128 q -529 -151 -550 -128 q -508 -207 -508 -173 q -530 -264 -508 -241 q -589 -287 -551 -287 q -649 -264 -627 -287 z "},"ऽ":{"ha":783,"x_min":72,"x_max":680,"o":"m 680 277 q 605 108 680 170 q 418 47 531 47 q 72 159 239 47 l 107 275 q 383 166 261 166 q 502 198 458 166 q 546 284 546 231 q 503 378 546 336 q 356 484 461 421 q 207 605 251 548 q 164 733 164 663 q 220 852 164 804 q 389 901 276 901 l 657 901 l 657 798 l 428 798 q 305 713 306 798 q 339 641 305 676 q 468 550 373 607 q 630 420 581 482 q 680 277 680 358 z "},"ा":{"ha":434,"x_min":-21,"x_max":455,"o":"m 131 0 l 131 798 l -21 798 l -21 901 l 455 901 l 455 798 l 276 798 l 276 0 l 131 0 z "},"ि":{"ha":434,"x_min":-21,"x_max":1070,"o":"m 131 0 l 131 798 l -21 798 l -21 901 l 131 901 l 131 952 q 188 1126 131 1053 q 266 1194 219 1166 q 386 1241 313 1223 q 550 1258 459 1258 q 1070 1150 817 1258 l 1041 1036 q 569 1131 804 1131 q 348 1078 421 1131 q 276 942 276 1025 l 276 901 l 455 901 l 455 798 l 276 798 l 276 0 l 131 0 z "},"ी":{"ha":434,"x_min":-366,"x_max":455,"o":"m 131 0 l 131 798 l -21 798 l -21 901 l 115 901 q 2 1067 66 1010 q -133 1123 -62 1123 q -204 1097 -179 1123 q -229 1028 -229 1071 q -166 882 -229 959 l -315 882 q -366 1055 -366 970 q -310 1195 -366 1139 q -154 1251 -255 1251 q 90 1160 -20 1251 q 267 901 199 1069 l 455 901 l 455 798 l 276 798 l 276 0 l 131 0 z "},"ु":{"ha":0,"x_min":-673,"x_max":-1,"o":"m -237 20 q -66 -41 -132 20 q -1 -199 -1 -103 q -69 -353 -1 -295 q -245 -411 -137 -411 q -463 -368 -352 -411 q -673 -246 -573 -324 l -626 -140 q -439 -256 -529 -218 q -278 -295 -350 -295 q -168 -265 -206 -295 q -129 -192 -129 -236 q -159 -121 -129 -147 q -238 -95 -188 -95 q -395 -162 -313 -95 l -454 -60 q -237 20 -362 20 z "},"ू":{"ha":0,"x_min":-484,"x_max":202,"o":"m -234 -401 q -412 -342 -340 -401 q -484 -193 -484 -283 q -422 -44 -484 -104 q -250 16 -360 16 q 202 -265 -18 16 l 128 -349 q -235 -105 -67 -105 q -325 -134 -293 -105 q -357 -204 -357 -163 q -326 -269 -357 -245 q -239 -294 -296 -294 q -112 -261 -182 -294 l -76 -364 q -234 -401 -144 -401 z "},"ृ":{"ha":0,"x_min":-487,"x_max":-84,"o":"m -84 -329 q -256 -359 -158 -359 q -420 -306 -353 -359 q -487 -163 -487 -253 q -425 -32 -487 -84 q -252 20 -363 20 q -158 16 -198 20 l -158 -75 l -229 -75 q -332 -104 -297 -75 q -367 -173 -367 -132 q -336 -238 -367 -215 q -246 -261 -305 -261 q -103 -226 -186 -261 l -84 -329 z "},"ॄ":{"ha":0,"x_min":-468,"x_max":-53,"o":"m -53 -477 q -204 -506 -120 -506 q -337 -463 -288 -506 q -387 -362 -387 -421 q -361 -282 -387 -315 q -440 -221 -411 -261 q -468 -135 -468 -182 q -410 -24 -468 -67 q -246 20 -353 20 q -158 15 -197 20 l -158 -70 l -228 -70 q -314 -91 -286 -70 q -343 -142 -343 -112 q -318 -191 -343 -173 q -243 -209 -294 -209 q -124 -188 -192 -209 l -105 -279 q -236 -302 -169 -300 q -275 -359 -275 -323 q -253 -403 -275 -386 q -184 -420 -230 -420 q -70 -391 -138 -420 l -53 -477 z "},"ॅ":{"ha":0,"x_min":-521,"x_max":51,"o":"m 51 1104 q -224 982 -57 982 q -521 1098 -392 982 l -484 1205 q -232 1095 -367 1095 q 8 1203 -98 1095 l 51 1104 z "},"ॆ":{"ha":0,"x_min":-770,"x_max":-169,"o":"m -169 873 l -305 873 l -305 957 q -381 1042 -305 1042 q -461 1027 -403 1042 q -573 1012 -519 1012 q -770 1120 -680 1012 l -716 1209 q -638 1147 -671 1164 q -571 1130 -605 1130 q -464 1149 -537 1130 q -343 1168 -392 1168 q -217 1116 -265 1168 q -169 976 -169 1064 l -169 873 z "},"े":{"ha":0,"x_min":-650,"x_max":-150,"o":"m -150 873 l -323 873 l -650 1189 l -543 1272 l -150 873 z "},"ै":{"ha":0,"x_min":-831,"x_max":-157,"o":"m -482 873 l -831 1127 l -735 1221 l -298 882 l -459 1263 l -328 1303 l -157 873 l -482 873 z "},"ॉ":{"ha":434,"x_min":-81,"x_max":491,"o":"m 131 0 l 131 798 l -21 798 l -21 901 l 455 901 l 455 798 l 276 798 l 276 0 l 131 0 m 491 1105 q 215 982 383 982 q -81 1099 48 982 l -44 1206 q 207 1096 72 1096 q 447 1204 342 1096 l 491 1105 z "},"ॊ":{"ha":434,"x_min":-334,"x_max":455,"o":"m 131 0 l 131 798 l -21 798 l -21 901 l 131 901 l 131 957 q 55 1042 131 1042 q -25 1027 33 1042 q -137 1012 -83 1012 q -334 1120 -244 1012 l -279 1209 q -202 1147 -235 1164 q -135 1130 -169 1130 q -28 1149 -101 1130 q 93 1168 44 1168 q 219 1116 171 1168 q 268 976 268 1064 l 268 901 l 455 901 l 455 798 l 276 798 l 276 0 l 131 0 z "},"ो":{"ha":434,"x_min":-216,"x_max":455,"o":"m 131 0 l 131 798 l -21 798 l -21 901 l 83 901 l -216 1189 l -110 1272 l 256 901 l 455 901 l 455 798 l 276 798 l 276 0 l 131 0 z "},"ौ":{"ha":434,"x_min":-400,"x_max":455,"o":"m 131 0 l 131 798 l -21 798 l -21 873 l -51 873 l -400 1127 l -304 1221 l 109 901 l 126 901 l -27 1263 l 103 1303 l 263 901 l 455 901 l 455 798 l 276 798 l 276 0 l 131 0 z "},"्":{"ha":0,"x_min":-343,"x_max":80,"o":"m -343 -158 l -293 -51 l 80 -228 l 30 -335 l -343 -158 z "},"ॎ":{"ha":434,"x_min":131,"x_max":455,"o":"m 131 0 l 131 901 l 455 901 l 455 798 l 279 798 l 279 0 l 131 0 z "},"ॏ":{"ha":434,"x_min":-438,"x_max":455,"o":"m 131 0 l 131 798 l -21 798 l -21 901 l 64 901 l 56 914 q 11 968 35 951 q -45 984 -14 984 q -132 973 -75 984 q -230 961 -190 961 q -438 1060 -347 961 l -388 1133 q -234 1060 -310 1060 q -136 1076 -200 1060 q -37 1091 -72 1091 q 80 1061 37 1091 q 161 955 123 1031 l 161 1062 q 87 1135 161 1135 q 21 1122 68 1135 q -65 1110 -26 1110 q -250 1203 -169 1110 l -202 1279 q -70 1211 -131 1211 q 18 1226 -43 1211 q 121 1241 78 1241 q 234 1198 192 1241 q 276 1078 276 1154 l 276 901 l 455 901 l 455 798 l 276 798 l 276 0 l 131 0 z "},"ॐ":{"ha":1397,"x_min":92,"x_max":1357,"o":"m 402 75 q 92 186 244 75 l 126 301 q 378 198 255 198 q 484 235 445 198 q 523 328 523 271 q 430 474 523 419 q 256 447 354 449 l 246 446 l 221 560 l 228 560 q 421 602 358 562 q 484 699 484 642 q 451 770 484 744 q 357 797 418 797 q 159 736 263 797 l 121 852 q 357 911 235 911 q 546 851 480 911 q 612 692 612 790 q 536 532 612 595 q 645 385 620 470 q 668 384 654 384 q 742 423 708 385 q 817 551 776 461 q 869 648 843 607 q 928 724 895 689 q 1107 795 997 795 q 1287 715 1216 795 q 1357 517 1357 635 q 1284 323 1357 399 q 1102 248 1211 248 q 850 340 974 248 q 705 270 789 270 q 653 272 675 270 q 573 131 640 186 q 402 75 506 75 m 911 431 q 1072 364 1001 364 q 1187 410 1143 364 q 1231 525 1231 456 q 1198 632 1231 593 q 1112 671 1164 671 q 949 510 1022 671 q 911 431 930 466 m 1090 1002 q 814 880 982 880 q 517 996 647 880 l 555 1103 q 806 994 671 994 q 1046 1101 941 994 l 1090 1002 m 752 1095 q 743 1105 752 1095 q 734 1145 734 1114 q 752 1194 734 1175 q 804 1214 770 1214 q 856 1195 838 1214 q 874 1145 874 1175 q 856 1095 874 1114 q 804 1075 838 1075 q 752 1095 770 1075 z "},"॑":{"ha":0,"x_min":-305,"x_max":-160,"o":"m -305 1225 l -160 1225 l -160 1001 l -305 1001 l -305 1225 z "},"॒":{"ha":0,"x_min":-702,"x_max":-148,"o":"m -148 -172 l -702 -172 l -702 -76 l -148 -76 l -148 -172 z "},"॓":{"ha":0,"x_min":-442,"x_max":-154,"o":"m -256 1270 l -154 1003 l -280 1003 l -442 1270 l -256 1270 z "},"॔":{"ha":0,"x_min":-287,"x_max":1,"o":"m -287 1003 l -185 1270 l 1 1270 l -161 1003 l -287 1003 z "},"ॕ":{"ha":0,"x_min":-724,"x_max":-152,"o":"m -162 995 l -716 995 l -716 1091 l -162 1091 l -162 995 m -152 1231 q -428 1122 -261 1122 q -724 1226 -595 1122 l -687 1320 q -435 1223 -570 1223 q -195 1319 -301 1223 l -152 1231 z "},"ॖ":{"ha":0,"x_min":-543,"x_max":85,"o":"m 85 -158 q -217 -279 -37 -279 q -543 -162 -398 -279 l -508 -64 q -225 -168 -382 -168 q 45 -62 -69 -168 l 85 -158 z "},"ॗ":{"ha":0,"x_min":-557,"x_max":104,"o":"m 104 -344 q -214 -451 -24 -451 q -557 -348 -404 -451 l -520 -261 q -222 -353 -387 -353 q 62 -260 -58 -353 l 104 -344 m 85 -149 q -218 -260 -37 -260 q -543 -152 -399 -260 l -508 -63 q -226 -158 -382 -158 q 45 -62 -70 -158 l 85 -149 z "},"क़":{"ha":1145,"x_min":-21,"x_max":1166,"o":"m 63 -57 q 52 -45 63 -57 q 41 0 41 -34 q 63 57 41 34 q 123 79 84 79 q 183 57 161 79 q 204 0 204 34 q 182 -57 204 -34 q 123 -80 161 -80 q 63 -57 85 -80 m 650 0 l 505 0 l 505 216 q 333 164 430 164 q 140 240 216 164 q 64 426 64 317 q 126 581 64 520 q 301 642 188 642 q 505 601 414 642 l 505 798 l -21 798 l -21 901 l 1166 901 l 1166 798 l 650 798 l 650 561 q 793 591 718 591 q 983 524 909 591 q 1057 353 1057 457 q 965 106 1057 222 l 843 151 q 926 357 926 261 q 895 439 926 408 q 807 469 863 469 q 650 399 721 469 l 650 0 m 319 278 q 505 371 426 278 l 505 489 q 343 529 422 529 q 226 495 263 529 q 190 406 190 461 q 225 315 190 351 q 319 278 261 278 z "},"ख़":{"ha":1265,"x_min":-21,"x_max":1286,"o":"m 71 -57 q 60 -45 71 -57 q 49 0 49 -34 q 71 57 49 34 q 131 79 92 79 q 190 57 169 79 q 211 0 211 34 q 190 -57 211 -34 q 131 -80 169 -80 q 71 -57 93 -80 m 802 367 q 961 427 895 367 l 961 541 q 810 574 889 574 q 717 545 749 574 q 685 471 685 515 q 718 396 685 426 q 802 367 751 367 m 961 0 l 961 46 q 723 18 857 18 q 456 67 589 18 q 232 208 323 117 q 135 326 182 259 q 39 517 39 463 q 56 562 39 544 q 99 581 73 581 q 143 568 124 581 q 184 525 162 555 l 206 489 q 291 563 267 517 q 315 682 315 608 l 315 798 l -21 798 l -21 901 l 1286 901 l 1286 798 l 1107 798 l 1107 0 l 961 0 m 329 283 q 506 170 401 211 q 734 129 612 129 q 961 170 856 129 l 961 293 q 812 259 899 259 q 639 325 710 259 q 567 490 567 392 q 625 626 567 574 q 783 678 683 678 q 961 647 884 678 l 961 798 l 460 798 l 460 671 q 452 578 460 619 q 423 494 444 536 q 265 355 382 410 q 329 283 291 321 z "},"ग़":{"ha":939,"x_min":-21,"x_max":960,"o":"m 191 -57 q 180 -45 191 -57 q 169 0 169 -34 q 191 57 169 34 q 251 79 212 79 q 310 57 289 79 q 331 0 331 34 q 310 -57 331 -34 q 251 -80 289 -80 q 191 -57 213 -80 m 636 0 l 636 798 l 355 798 l 355 317 q 296 250 355 250 q 203 284 255 250 q 117 363 152 318 q 81 439 81 408 q 140 489 81 489 l 209 489 l 209 798 l -21 798 l -21 901 l 960 901 l 960 798 l 781 798 l 781 0 l 636 0 z "},"ज़":{"ha":1151,"x_min":-21,"x_max":1172,"o":"m 40 -53 q 29 -42 40 -53 q 18 4 18 -30 q 40 60 18 37 q 100 83 61 83 q 159 60 138 83 q 180 4 180 37 q 159 -53 180 -30 q 100 -77 138 -77 q 40 -53 62 -77 m 847 0 l 847 508 l 573 508 q 670 295 670 421 q 605 136 670 200 q 430 71 540 71 q 34 358 205 71 l 108 457 q 414 201 265 201 q 505 231 472 201 q 538 315 538 261 q 481 440 538 381 q 330 523 425 499 l 330 629 l 847 629 l 847 798 l -21 798 l -21 901 l 1172 901 l 1172 798 l 992 798 l 992 0 l 847 0 z "},"ड़":{"ha":833,"x_min":-21,"x_max":855,"o":"m 361 -208 q 350 -196 361 -208 q 339 -151 339 -185 q 361 -94 339 -117 q 421 -72 382 -72 q 480 -94 459 -72 q 501 -151 501 -117 q 480 -208 501 -185 q 421 -231 459 -231 q 361 -208 383 -231 m 449 10 q 81 105 268 10 l 113 219 q 431 124 278 124 q 564 156 518 124 q 609 238 609 187 q 576 302 609 278 q 483 327 543 327 q 305 276 388 327 l 294 276 q 104 506 104 365 q 156 621 104 574 q 310 667 209 667 l 520 667 l 520 798 l -21 798 l -21 901 l 855 901 l 855 798 l 665 798 l 665 562 l 334 562 q 262 541 286 562 q 238 486 238 520 q 294 402 238 435 q 483 441 380 441 q 675 383 606 441 q 744 231 744 326 q 671 73 744 136 q 449 10 597 10 z "},"ढ़":{"ha":843,"x_min":-21,"x_max":864,"o":"m 404 -194 q 394 -182 404 -194 q 383 -137 383 -171 q 404 -80 383 -103 q 464 -58 426 -58 q 524 -80 503 -58 q 545 -137 545 -103 q 523 -194 545 -171 q 464 -217 502 -217 q 404 -194 426 -217 m 494 116 q 633 145 584 116 q 681 216 681 174 q 657 268 681 249 q 585 288 632 288 q 506 258 537 288 q 475 189 475 229 q 492 116 475 150 l 494 116 m 509 19 q 333 47 415 19 q 195 121 251 74 q 106 229 138 168 q 74 353 74 291 q 93 463 74 415 q 151 549 112 511 q 252 608 189 587 q 397 629 315 629 l 527 629 l 527 798 l -21 798 l -21 901 l 864 901 l 864 798 l 672 798 l 672 520 l 447 520 q 265 469 322 520 q 208 334 208 418 q 250 220 208 273 q 364 140 292 168 q 355 209 355 170 q 412 335 355 284 q 572 387 469 387 q 736 336 674 387 q 798 210 798 284 q 724 72 798 126 q 509 19 650 19 z "},"फ़":{"ha":1174,"x_min":-21,"x_max":1195,"o":"m 128 -3 q 118 9 128 -3 q 107 54 107 20 q 128 111 107 88 q 188 133 150 133 q 248 111 227 133 q 269 54 269 88 q 248 -3 269 20 q 188 -26 226 -26 q 128 -3 150 -26 m 678 0 l 532 0 l 532 294 q 399 272 465 272 q 182 347 261 272 q 103 562 103 421 l 103 798 l -21 798 l -21 901 l 1195 901 l 1195 798 l 678 798 l 678 525 q 831 560 746 560 q 1023 489 950 560 q 1096 315 1096 418 q 1073 184 1096 251 q 1011 65 1050 118 l 884 109 q 963 319 963 219 q 931 403 963 371 q 845 436 899 436 q 678 357 753 436 l 678 0 m 378 393 q 532 442 459 393 l 532 798 l 248 798 l 248 529 q 282 427 248 461 q 378 393 315 393 z "},"य़":{"ha":918,"x_min":-21,"x_max":940,"o":"m 104 -4 q 93 7 104 -4 q 82 53 82 19 q 104 109 82 86 q 164 132 125 132 q 223 109 202 132 q 244 53 244 86 q 223 -4 244 19 q 164 -27 202 -27 q 104 -4 126 -27 m 415 316 q 615 400 538 316 l 615 798 l 401 798 l 401 681 q 358 510 401 579 q 225 402 315 441 q 415 316 305 316 m 615 0 l 615 231 q 451 189 547 189 q 220 257 330 189 q 45 447 110 326 l 48 462 q 210 554 164 501 q 256 692 256 607 l 256 798 l -21 798 l -21 901 l 940 901 l 940 798 l 760 798 l 760 0 l 615 0 z "},"ॠ":{"ha":1198,"x_min":-21,"x_max":1219,"o":"m 1049 -41 q 893 10 956 -41 q 830 133 830 60 q 953 303 830 242 l 905 378 q 731 343 822 343 q 659 349 697 343 l 659 0 l 510 0 l 510 263 l 182 95 l 117 211 l 490 396 l 433 435 q 225 513 316 513 q 81 472 166 513 l 44 600 q 209 641 131 641 q 458 555 328 641 l 510 520 l 510 798 l -21 798 l -21 901 l 1219 901 l 1219 798 l 659 798 l 659 471 q 725 465 690 465 q 834 487 784 465 q 813 549 813 521 q 835 594 813 577 q 899 610 857 611 q 1007 588 964 610 q 1050 526 1050 565 q 1005 444 1050 487 l 1105 289 l 1093 242 q 967 126 967 210 q 1054 62 967 62 q 1164 91 1099 62 l 1184 -13 q 1049 -41 1111 -41 z "},"ॡ":{"ha":1103,"x_min":-21,"x_max":1124,"o":"m 1084 -243 q 931 -273 1014 -273 q 799 -231 849 -273 q 749 -132 749 -190 q 779 -51 749 -85 q 698 6 727 -32 q 668 91 668 44 q 720 196 668 153 q 855 241 771 238 q 898 373 898 314 q 868 464 898 431 q 785 497 838 497 q 659 427 715 497 q 579 221 604 357 l 449 263 q 508 446 467 368 q 355 505 435 505 q 247 462 289 505 q 206 353 206 418 q 245 223 206 288 q 381 70 284 158 l 276 6 q 120 195 172 103 q 68 390 68 288 q 138 562 68 492 q 322 632 207 632 q 576 542 461 632 q 745 624 647 614 l 745 798 l -21 798 l -21 901 l 1124 901 l 1124 798 l 892 798 l 892 600 q 996 507 960 569 q 1032 367 1032 446 q 956 154 1032 262 l 909 154 q 822 133 851 154 q 793 82 793 112 q 816 35 793 53 q 889 18 840 18 q 1013 41 939 18 l 1031 -46 q 901 -70 954 -67 q 864 -130 864 -91 q 886 -172 864 -156 q 955 -189 908 -189 q 1067 -161 1003 -189 l 1084 -243 z "},"ॢ":{"ha":0,"x_min":-537,"x_max":44,"o":"m 44 -352 q -54 -371 -1 -371 q -143 -342 -107 -371 q -179 -270 -179 -312 q -153 -201 -179 -228 q -74 -166 -126 -173 q -52 -103 -52 -133 q -68 -55 -52 -72 q -112 -38 -84 -38 q -181 -77 -151 -38 q -227 -179 -211 -115 l -314 -150 q -286 -67 -304 -103 q -369 -29 -324 -29 q -420 -48 -401 -29 q -440 -99 -440 -68 q -419 -161 -440 -130 q -344 -236 -399 -193 l -415 -284 q -537 -81 -537 -189 q -495 21 -537 -20 q -383 62 -454 62 q -237 3 -301 62 q -116 52 -186 52 q -5 10 -46 52 q 37 -93 37 -32 q -5 -228 37 -167 l -29 -228 q -79 -240 -62 -228 q -97 -270 -97 -253 q -83 -297 -97 -287 q -39 -308 -69 -308 q 34 -290 -9 -308 l 44 -352 z "},"ॣ":{"ha":0,"x_min":-537,"x_max":74,"o":"m 74 -467 q -15 -485 36 -485 q -95 -459 -65 -485 q -125 -394 -125 -433 q -113 -351 -125 -371 q -160 -314 -143 -338 q -176 -258 -176 -290 q -151 -200 -176 -225 q -74 -167 -125 -174 q -52 -102 -52 -133 q -68 -55 -52 -72 q -112 -38 -84 -38 q -181 -77 -151 -38 q -227 -179 -211 -115 l -314 -150 q -286 -67 -304 -103 q -369 -29 -324 -29 q -420 -48 -401 -29 q -440 -99 -440 -68 q -419 -161 -440 -130 q -344 -236 -399 -193 l -415 -284 q -537 -81 -537 -189 q -495 21 -537 -20 q -383 62 -454 62 q -237 3 -301 62 q -117 52 -186 52 q -5 11 -47 52 q 37 -93 37 -31 q 26 -164 37 -128 q -4 -228 15 -201 l -23 -228 q -75 -239 -58 -228 q -92 -266 -92 -250 q -78 -292 -92 -283 q -36 -302 -64 -302 q 34 -289 -8 -302 l 44 -350 q -34 -365 6 -364 q -48 -393 -48 -376 q -4 -426 -48 -426 q 65 -411 27 -426 l 74 -467 z "},"।":{"ha":466,"x_min":239,"x_max":378,"o":"m 378 -98 l 239 -98 l 239 971 l 378 971 l 378 -98 z "},"॥":{"ha":810,"x_min":239,"x_max":722,"o":"m 722 -98 l 582 -98 l 582 971 l 722 971 l 722 -98 m 378 -98 l 239 -98 l 239 971 l 378 971 l 378 -98 z "},"०":{"ha":810,"x_min":74,"x_max":737,"o":"m 409 660 q 366 660 409 660 q 270 602 324 660 q 216 460 216 543 q 270 322 216 376 q 407 269 324 269 q 545 325 490 269 q 600 465 600 381 q 547 605 600 549 q 409 660 494 660 m 74 477 q 97 592 74 537 q 161 690 120 647 q 265 758 202 732 q 403 784 328 784 q 542 758 478 784 q 648 687 605 732 q 714 582 690 642 q 737 446 737 522 q 700 299 737 369 q 587 186 662 230 q 412 143 512 143 q 169 238 263 143 q 74 477 74 334 z "},"१":{"ha":644,"x_min":67,"x_max":581,"o":"m 323 789 q 295 789 323 789 q 236 757 268 789 q 204 675 204 725 q 251 586 204 625 q 386 534 298 548 q 448 670 448 604 q 413 754 448 720 q 323 789 377 789 m 383 -60 q 412 15 412 -21 q 363 88 412 51 l 125 271 l 125 286 l 291 442 q 122 539 178 472 q 67 693 67 605 q 134 846 67 781 q 318 911 201 911 q 459 876 397 911 q 550 788 520 842 q 581 670 581 734 q 554 553 581 607 q 470 442 527 499 l 310 283 l 477 149 q 555 17 553 87 q 513 -97 555 -39 l 383 -60 z "},"२":{"ha":694,"x_min":64,"x_max":631,"o":"m 208 274 q 125 293 150 274 q 100 348 100 312 q 144 448 100 396 q 234 500 187 500 q 282 483 262 500 q 326 426 303 467 q 447 511 403 458 q 491 629 491 565 q 442 738 491 694 q 315 782 393 782 q 106 728 207 782 l 64 850 q 323 902 183 902 q 547 825 463 902 q 631 625 631 748 q 563 437 631 520 q 389 310 495 355 l 598 -30 l 480 -88 l 261 277 q 208 274 231 274 z "},"३":{"ha":672,"x_min":57,"x_max":605,"o":"m 91 140 q 136 224 91 184 q 228 264 180 264 q 320 182 286 264 q 432 228 391 190 q 473 319 473 265 q 434 411 473 374 q 321 449 396 449 q 169 420 246 449 l 137 540 q 327 572 234 572 q 380 568 352 572 q 425 680 425 616 q 391 754 425 723 q 298 786 357 786 q 104 727 204 786 l 57 843 q 300 903 174 903 q 492 839 426 903 q 557 685 557 776 q 499 522 557 595 q 577 431 550 487 q 605 310 605 375 q 542 152 605 218 q 367 68 480 87 l 436 -69 l 323 -114 l 237 62 q 91 140 91 70 z "},"४":{"ha":776,"x_min":14,"x_max":781,"o":"m 291 253 q 291 232 291 253 q 321 184 291 211 q 401 157 351 157 q 483 186 451 157 q 514 264 514 216 q 490 340 514 299 q 404 444 466 381 q 314 335 336 376 q 291 253 291 294 m 650 251 q 585 106 650 168 q 408 45 519 45 q 227 110 298 45 q 156 265 156 174 q 187 388 156 327 q 306 539 218 450 l 14 820 l 109 911 l 396 629 l 679 913 l 781 823 l 493 534 q 615 380 581 446 q 650 251 650 314 z "},"५":{"ha":806,"x_min":86,"x_max":840,"o":"m 393 179 q 173 262 260 179 q 86 473 86 345 q 149 697 86 588 q 333 902 211 805 l 461 829 q 226 466 226 650 q 271 344 226 388 q 382 300 316 300 q 503 332 448 300 q 469 424 469 390 q 494 479 469 459 q 569 499 518 499 q 689 473 645 499 q 734 407 734 446 q 674 294 734 355 l 840 -45 l 720 -95 l 567 218 q 393 179 484 179 z "},"६":{"ha":717,"x_min":70,"x_max":739,"o":"m 458 60 q 228 135 314 60 q 143 324 143 209 q 190 459 143 398 q 70 673 70 543 q 153 831 70 766 q 272 884 196 864 q 449 903 348 903 l 481 783 q 272 744 335 783 q 210 643 210 706 q 281 535 210 580 q 520 591 377 586 l 562 469 q 430 455 487 469 q 342 416 374 440 q 279 297 279 366 q 323 211 279 246 q 437 176 367 176 q 490 180 466 176 q 477 239 477 213 q 498 281 477 265 q 565 297 520 297 q 679 271 632 297 q 725 207 725 245 q 708 158 725 184 q 659 112 691 133 l 739 -60 l 627 -105 l 548 69 q 458 60 508 60 z "},"७":{"ha":864,"x_min":86,"x_max":803,"o":"m 459 514 q 658 345 459 395 q 672 435 672 388 q 635 557 672 506 q 547 607 598 607 q 482 582 505 607 q 459 514 459 557 m 761 237 q 740 197 761 237 q 642 111 720 158 q 475 65 565 65 q 315 95 385 65 q 195 183 246 126 q 115 328 144 240 q 86 517 86 416 q 105 716 86 617 q 152 892 123 815 l 284 852 q 216 483 216 670 q 283 263 216 341 q 446 185 350 185 q 603 249 542 185 q 394 365 462 291 q 327 529 327 439 q 380 675 327 620 q 527 730 433 730 q 723 641 643 730 q 803 411 803 553 q 761 237 803 315 z "},"८":{"ha":732,"x_min":72,"x_max":728,"o":"m 302 493 q 237 401 254 440 q 219 312 219 361 q 262 226 219 263 q 370 189 305 188 q 502 218 435 190 q 653 316 568 247 l 728 190 q 559 91 641 121 q 387 61 477 61 q 159 139 246 61 q 72 335 72 217 q 97 460 72 400 q 183 585 122 519 l 468 899 l 584 806 l 302 493 z "},"९":{"ha":687,"x_min":57,"x_max":638,"o":"m 326 786 q 297 786 326 786 q 232 749 268 786 q 197 662 197 711 q 216 576 197 614 q 277 493 235 538 q 412 554 366 513 q 459 653 459 595 q 421 749 459 711 q 326 786 384 786 m 453 -41 q 489 45 489 4 q 437 141 489 86 l 201 388 q 91 531 125 467 q 57 675 57 595 q 127 839 57 769 q 319 910 197 910 q 517 835 442 910 q 592 651 592 759 q 532 489 592 558 q 369 397 472 421 l 557 203 q 638 51 638 118 q 593 -77 638 -15 l 453 -41 z "},"॰":{"ha":594,"x_min":61,"x_max":529,"o":"m 295 373 q 320 373 295 373 q 381 405 345 373 q 416 490 416 437 q 380 577 416 543 q 294 610 344 610 q 209 578 244 610 q 174 491 174 545 q 209 405 174 437 q 295 373 244 373 m 463 647 q 496 615 463 647 q 529 490 529 584 q 464 335 529 397 q 298 272 399 272 q 129 337 197 272 q 61 494 61 402 q 126 649 61 587 q 294 711 192 711 q 463 647 396 711 z "},"ॱ":{"ha":531,"x_min":185,"x_max":348,"o":"m 207 790 q 196 802 207 790 q 185 847 185 813 q 207 903 185 881 q 267 926 228 926 q 327 903 305 926 q 348 847 348 881 q 326 790 348 813 q 267 767 305 767 q 207 790 229 767 z "},"ॲ":{"ha":1135,"x_min":60,"x_max":1185,"o":"m 831 0 l 831 355 q 706 335 775 335 q 623 341 668 335 q 624 310 624 321 q 555 143 624 211 q 371 75 486 75 q 60 186 212 75 l 94 301 q 345 198 223 198 q 453 235 414 198 q 492 328 492 271 q 397 474 492 420 q 225 447 322 449 l 214 446 l 190 560 l 196 560 q 389 602 326 562 q 453 699 453 642 q 419 770 453 744 q 324 797 385 797 q 128 736 232 797 l 89 852 q 326 911 204 911 q 514 851 449 911 q 580 692 580 790 q 505 532 580 595 q 581 455 553 496 q 671 448 623 448 q 831 489 763 448 l 831 798 l 687 798 l 687 901 l 1156 901 l 1156 798 l 977 798 l 977 0 l 831 0 m 1185 1104 q 909 982 1076 982 q 612 1098 741 982 l 650 1205 q 901 1095 766 1095 q 1141 1203 1036 1095 l 1185 1104 z "},"ॳ":{"ha":1135,"x_min":60,"x_max":1156,"o":"m 831 0 l 831 355 q 706 335 775 335 q 623 341 668 335 q 624 310 624 321 q 555 143 624 211 q 371 75 486 75 q 60 186 212 75 l 94 301 q 345 198 223 198 q 453 235 414 198 q 492 328 492 271 q 397 474 492 420 q 225 447 322 449 l 214 446 l 190 560 l 196 560 q 389 602 326 562 q 453 699 453 642 q 419 770 453 744 q 324 797 385 797 q 128 736 232 797 l 89 852 q 326 911 204 911 q 514 851 449 911 q 580 692 580 790 q 505 532 580 595 q 581 455 553 496 q 671 448 623 448 q 831 489 763 448 l 831 798 l 687 798 l 687 901 l 826 901 l 826 1049 l 971 1049 l 971 901 l 1156 901 l 1156 798 l 977 798 l 977 0 l 831 0 z "},"ॴ":{"ha":1557,"x_min":60,"x_max":1578,"o":"m 831 0 l 831 355 q 706 335 775 335 q 623 341 668 335 q 624 310 624 321 q 555 143 624 211 q 371 75 486 75 q 60 186 212 75 l 94 301 q 345 198 223 198 q 453 235 414 198 q 492 328 492 271 q 397 474 492 420 q 225 447 322 449 l 214 446 l 190 560 l 196 560 q 389 602 326 562 q 453 699 453 642 q 419 770 453 744 q 324 797 385 797 q 128 736 232 797 l 89 852 q 326 911 204 911 q 514 851 449 911 q 580 692 580 790 q 505 532 580 595 q 581 455 553 496 q 671 448 623 448 q 831 489 763 448 l 831 798 l 687 798 l 687 901 l 1250 901 l 1250 1049 l 1395 1049 l 1395 901 l 1578 901 l 1578 798 l 1399 798 l 1399 0 l 1255 0 l 1255 798 l 977 798 l 977 0 l 831 0 z "},"ॵ":{"ha":1557,"x_min":60,"x_max":1578,"o":"m 831 0 l 831 355 q 706 335 775 335 q 623 341 668 335 q 624 310 624 321 q 555 143 624 211 q 371 75 486 75 q 60 186 212 75 l 94 301 q 345 198 223 198 q 453 235 414 198 q 492 328 492 271 q 397 474 492 420 q 225 447 322 449 l 214 446 l 190 560 l 196 560 q 389 602 326 562 q 453 699 453 642 q 419 770 453 744 q 324 797 385 797 q 128 736 232 797 l 89 852 q 326 911 204 911 q 514 851 449 911 q 580 692 580 790 q 505 532 580 595 q 581 455 553 496 q 671 448 623 448 q 831 489 763 448 l 831 798 l 687 798 l 687 901 l 1183 901 q 1129 967 1154 950 q 1074 984 1105 984 q 986 973 1043 984 q 889 961 929 961 q 680 1060 772 961 l 730 1133 q 885 1060 809 1060 q 983 1076 918 1060 q 1082 1091 1047 1091 q 1199 1061 1156 1091 q 1280 955 1241 1031 l 1280 1062 q 1206 1135 1280 1135 q 1140 1122 1187 1135 q 1053 1110 1093 1110 q 869 1203 949 1110 l 916 1279 q 1049 1211 988 1211 q 1136 1226 1076 1211 q 1240 1241 1196 1241 q 1353 1198 1311 1241 q 1395 1078 1395 1154 l 1395 901 l 1578 901 l 1578 798 l 1399 798 l 1399 0 l 1255 0 l 1255 798 l 977 798 l 977 0 l 831 0 z "},"ॶ":{"ha":1135,"x_min":60,"x_max":1156,"o":"m 889 -158 q 587 -279 767 -279 q 261 -162 406 -279 l 296 -64 q 579 -168 422 -168 q 849 -62 735 -168 l 889 -158 m 831 0 l 831 355 q 706 335 775 335 q 623 341 668 335 q 624 310 624 321 q 555 143 624 211 q 371 75 486 75 q 60 186 212 75 l 94 301 q 345 198 223 198 q 453 235 414 198 q 492 328 492 271 q 397 474 492 420 q 225 447 322 449 l 214 446 l 190 560 l 196 560 q 389 602 326 562 q 453 699 453 642 q 419 770 453 744 q 324 797 385 797 q 128 736 232 797 l 89 852 q 326 911 204 911 q 514 851 449 911 q 580 692 580 790 q 505 532 580 595 q 581 455 553 496 q 671 448 623 448 q 831 489 763 448 l 831 798 l 687 798 l 687 901 l 1156 901 l 1156 798 l 977 798 l 977 0 l 831 0 z "},"ॷ":{"ha":1135,"x_min":60,"x_max":1156,"o":"m 906 -344 q 588 -451 779 -451 q 246 -348 398 -451 l 282 -261 q 580 -353 416 -353 q 864 -260 745 -353 l 906 -344 m 888 -149 q 585 -260 766 -260 q 260 -152 404 -260 l 294 -63 q 577 -158 421 -158 q 848 -62 733 -158 l 888 -149 m 831 0 l 831 355 q 706 335 775 335 q 623 341 668 335 q 624 310 624 321 q 555 143 624 211 q 371 75 486 75 q 60 186 212 75 l 94 301 q 345 198 223 198 q 453 235 414 198 q 492 328 492 271 q 397 474 492 420 q 225 447 322 449 l 214 446 l 190 560 l 196 560 q 389 602 326 562 q 453 699 453 642 q 419 770 453 744 q 324 797 385 797 q 128 736 232 797 l 89 852 q 326 911 204 911 q 514 851 449 911 q 580 692 580 790 q 505 532 580 595 q 581 455 553 496 q 671 448 623 448 q 831 489 763 448 l 831 798 l 687 798 l 687 901 l 1156 901 l 1156 798 l 977 798 l 977 0 l 831 0 z "},"ॸ":{"ha":794,"x_min":-21,"x_max":815,"o":"m 591 314 q 561 393 591 362 q 478 423 530 423 q 310 369 394 423 l 310 293 q 296 248 310 264 q 256 232 282 232 q 188 253 230 232 q 107 312 146 274 q 55 407 55 364 q 70 443 55 428 q 115 466 84 457 l 165 481 l 165 798 l -21 798 l -21 901 l 815 901 l 815 798 l 310 798 l 310 522 q 465 545 384 545 q 651 480 582 545 q 720 310 720 415 q 695 179 720 246 q 628 60 669 113 l 506 106 q 591 314 591 224 z "},"ॹ":{"ha":1151,"x_min":-21,"x_max":1172,"o":"m 378 -222 q 361 -222 378 -222 q 325 -202 344 -222 q 306 -151 306 -181 q 325 -101 306 -121 q 377 -81 343 -81 q 430 -101 411 -81 q 449 -151 449 -121 q 430 -201 449 -180 q 378 -222 411 -222 m 567 -130 q 550 -130 567 -130 q 515 -110 534 -130 q 496 -59 496 -89 q 514 -9 496 -29 q 567 11 533 11 q 620 -9 601 11 q 638 -59 638 -29 q 620 -109 638 -88 q 567 -130 601 -130 m 191 -120 q 174 -120 191 -120 q 138 -100 157 -120 q 119 -50 119 -79 q 138 0 119 -20 q 191 20 157 20 q 243 0 225 20 q 262 -49 262 -20 q 243 -99 262 -79 q 191 -120 225 -120 m 847 0 l 847 508 l 573 508 q 670 295 670 421 q 605 136 670 200 q 430 71 540 71 q 34 358 205 71 l 108 457 q 414 201 265 201 q 505 231 472 201 q 538 315 538 261 q 481 440 538 381 q 330 523 425 499 l 330 629 l 847 629 l 847 798 l -21 798 l -21 901 l 1172 901 l 1172 798 l 992 798 l 992 0 l 847 0 z "},"ॺ":{"ha":918,"x_min":-21,"x_max":940,"o":"m 419 313 q 581 363 514 313 l 393 647 q 225 402 381 472 q 315 337 264 360 q 419 313 365 313 m 615 798 l 407 798 l 615 483 l 615 798 m 615 0 l 615 229 q 451 186 550 186 q 219 255 329 186 q 43 445 108 323 l 48 462 q 210 554 164 501 q 256 692 256 607 l 256 798 l -21 798 l -21 901 l 940 901 l 940 798 l 760 798 l 760 0 l 615 0 z "},"ॻ":{"ha":939,"x_min":-21,"x_max":960,"o":"m 636 0 l 636 798 l 355 798 l 355 317 q 296 250 355 250 q 203 284 255 250 q 117 363 152 318 q 81 439 81 408 q 140 489 81 489 l 209 489 l 209 798 l -21 798 l -21 901 l 960 901 l 960 798 l 781 798 l 781 0 l 776 0 l 776 -98 l 165 -98 l 165 0 l 636 0 z "},"ॼ":{"ha":1151,"x_min":-21,"x_max":1172,"o":"m 847 0 l 847 508 l 573 508 q 670 295 670 421 q 605 136 670 200 q 430 71 540 71 q 34 358 205 71 l 108 457 q 414 201 265 201 q 505 231 472 201 q 538 315 538 261 q 481 440 538 381 q 330 523 425 499 l 330 629 l 847 629 l 847 798 l -21 798 l -21 901 l 1172 901 l 1172 798 l 992 798 l 992 -98 l 105 -98 l 105 0 l 847 0 z "},"ॽ":{"ha":754,"x_min":134,"x_max":652,"o":"m 246 1 l 246 482 l 254 482 q 448 539 376 487 q 520 665 520 592 q 479 754 520 720 q 358 789 437 789 q 171 736 278 789 l 134 852 q 367 906 249 906 q 576 836 501 906 q 652 650 652 765 q 614 522 652 581 q 517 429 575 463 q 394 385 459 395 l 394 1 l 246 1 z "},"ॾ":{"ha":833,"x_min":-21,"x_max":855,"o":"m 732 -64 l 732 -161 l 121 -161 l 121 -64 l 732 -64 m 449 10 q 81 105 268 10 l 113 219 q 431 124 278 124 q 564 156 518 124 q 609 238 609 187 q 576 302 609 278 q 483 327 543 327 q 305 276 388 327 l 294 276 q 104 506 104 365 q 156 621 104 574 q 310 667 209 667 l 520 667 l 520 798 l -21 798 l -21 901 l 855 901 l 855 798 l 665 798 l 665 562 l 334 562 q 262 541 286 562 q 238 486 238 520 q 294 402 238 435 q 483 441 380 441 q 675 383 606 441 q 744 231 744 326 q 671 73 744 136 q 449 10 597 10 z "},"ॿ":{"ha":849,"x_min":-21,"x_max":872,"o":"m 362 270 q 440 281 403 270 l 238 515 q 199 415 199 477 q 243 312 199 353 q 362 270 287 270 m 371 557 q 329 554 346 557 l 527 327 q 548 345 541 338 l 548 522 q 371 557 451 557 m 548 0 l 548 197 q 379 154 477 154 q 155 238 242 154 q 69 440 69 321 q 141 604 69 539 q 333 668 214 668 q 548 636 451 668 l 548 798 l -21 798 l -21 901 l 872 901 l 872 798 l 693 798 l 693 -98 l 143 -98 l 143 0 l 548 0 z "},"​":{"ha":0,"x_min":0,"x_max":0,"o":""},"‌":{"ha":0,"x_min":-14,"x_max":14,"o":"m 14 -250 l -14 -250 l -14 1145 l 14 1145 l 14 -250 z "},"‍":{"ha":0,"x_min":-187,"x_max":187,"o":"m 14 -249 l -14 -249 l -14 918 l -166 770 l -187 791 l -20 952 l -185 1113 l -165 1133 l 0 973 l 165 1133 l 187 1112 l 21 951 l 187 791 l 165 771 l 14 918 l 14 -249 z "},"–":{"ha":705,"x_min":81,"x_max":624,"o":"m 624 357 l 81 357 l 81 477 l 624 477 l 624 357 z "},"—":{"ha":1352,"x_min":81,"x_max":1271,"o":"m 1271 357 l 81 357 l 81 477 l 1271 477 l 1271 357 z "},"―":{"ha":1294,"x_min":52,"x_max":1242,"o":"m 1242 287 l 52 287 l 52 407 l 1242 407 l 1242 287 z "},"‘":{"ha":416,"x_min":84,"x_max":303,"o":"m 239 607 l 92 607 l 84 621 q 130 766 98 676 q 196 924 163 855 l 303 924 q 239 607 263 765 z "},"’":{"ha":402,"x_min":91,"x_max":310,"o":"m 154 924 l 301 924 l 310 910 q 199 607 277 777 l 91 607 q 154 924 136 789 z "},"“":{"ha":686,"x_min":91,"x_max":574,"o":"m 363 607 l 354 621 q 466 924 388 751 l 574 924 q 510 607 530 736 l 363 607 m 99 607 l 91 621 q 137 766 105 676 q 203 924 170 855 l 310 924 q 246 607 270 765 l 99 607 z "},"”":{"ha":665,"x_min":91,"x_max":574,"o":"m 301 924 l 310 910 q 199 607 277 777 l 91 607 q 154 924 136 789 l 301 924 m 565 924 l 574 910 q 463 607 540 779 l 354 607 q 419 924 397 779 l 565 924 z "},"•":{"ha":487,"x_min":83,"x_max":404,"o":"m 404 473 q 404 430 404 473 q 361 341 404 388 q 243 294 319 294 q 125 340 166 294 q 83 473 83 386 q 125 605 83 559 q 243 651 166 651 q 362 605 319 651 q 404 473 404 558 z "},"…":{"ha":1060,"x_min":84,"x_max":976,"o":"m 247 8 q 235 -5 247 8 q 178 -18 223 -18 q 108 7 133 -18 q 84 79 84 33 q 108 150 84 125 q 178 174 132 174 q 248 149 223 174 q 272 79 272 124 q 247 8 272 34 m 599 8 q 587 -5 599 8 q 529 -18 574 -18 q 460 7 484 -18 q 436 79 436 33 q 460 150 436 125 q 529 174 484 174 q 599 149 575 174 q 624 79 624 124 q 599 8 624 34 m 976 79 q 976 56 976 79 q 951 8 976 34 q 882 -18 926 -18 q 812 8 837 -18 q 788 79 788 34 q 812 150 788 125 q 882 174 836 174 q 951 149 927 174 q 976 79 976 124 z "},"₹":{"ha":823,"x_min":99,"x_max":711,"o":"m 99 543 l 99 645 l 433 645 q 363 756 420 713 q 230 800 307 800 l 99 800 l 99 901 l 711 901 l 711 800 l 488 800 q 570 645 557 734 l 711 645 l 711 543 l 568 543 q 486 399 550 459 q 322 312 421 339 l 574 8 l 575 0 l 423 0 l 143 336 l 145 395 q 426 543 381 409 l 99 543 z "},"−":{"ha":739,"x_min":60,"x_max":678,"o":"m 678 400 l 60 400 l 60 513 l 678 513 l 678 400 z "},"◌":{"ha":851,"x_min":111,"x_max":749,"o":"m 391 129 q 391 148 391 129 q 431 167 391 167 q 471 129 471 167 q 431 91 471 91 q 391 129 391 91 m 188 221 q 229 259 188 259 q 269 221 269 259 q 228 183 269 183 q 199 193 209 183 q 188 221 188 204 m 595 221 q 595 240 595 221 q 635 259 595 259 q 675 221 675 259 q 635 183 675 183 q 595 221 595 183 m 709 378 q 689 378 709 378 q 669 416 669 378 q 709 454 669 454 q 749 416 749 454 q 709 378 749 378 m 151 454 q 180 444 170 454 q 191 416 191 434 q 180 389 191 399 q 151 378 170 378 q 111 416 111 378 q 151 454 111 454 m 228 650 q 269 611 269 650 q 228 573 269 573 q 199 583 209 573 q 188 611 188 593 q 199 639 188 628 q 228 650 209 650 m 635 650 q 665 639 654 650 q 675 611 675 628 q 635 573 675 573 q 595 611 595 573 q 635 650 595 650 m 391 703 q 391 722 391 703 q 431 741 391 741 q 471 702 471 741 q 431 666 471 666 q 391 703 391 666 z "}}}
